<svg width="852" height="328" viewBox="0 0 852 328" fill="none" xmlns="http://www.w3.org/2000/svg">
<path d="M400.917 91.5075H370.437V109.023H398.06V118.125H370.437V143.048H360.224V82.3H401.023L400.917 91.5075Z" fill="black"/>
<path d="M461.659 91.5075H428.481V107.912H458.167V117.119H428.481V133.841H462.718V143.048H418.268V82.3H461.659V91.5075Z" fill="black"/>
<path d="M521.862 143.048L510.749 124.633C510.18 124.713 509.268 124.739 507.998 124.739H493.551V143.048H483.338V82.3H507.998C515.723 82.3 521.716 84.1256 525.989 87.7504C530.289 91.3487 532.445 96.4552 532.445 103.043C532.445 107.912 531.347 112.026 529.164 115.373C527.008 118.733 523.899 121.181 519.851 122.728L533.503 143.048H521.862ZM493.551 115.532H507.998C517.8 115.532 522.708 111.457 522.708 103.308C522.708 95.4498 517.8 91.5075 507.998 91.5075H493.551V115.532Z" fill="black"/>
<path d="M592.745 143.048L581.633 124.633C581.064 124.713 580.151 124.739 578.881 124.739H564.435V143.048H554.222V82.3H578.881C586.607 82.3 592.599 84.1256 596.873 87.7504C601.172 91.3487 603.328 96.4552 603.328 103.043C603.328 107.912 602.23 112.026 600.048 115.373C597.891 118.733 594.782 121.181 590.734 122.728L604.387 143.048H592.745ZM564.435 115.532H578.881C588.684 115.532 593.592 111.457 593.592 103.308C593.592 95.4498 588.684 91.5075 578.881 91.5075H564.435V115.532Z" fill="black"/>
<path d="M668.497 91.5075H635.318V107.912H665.004V117.119H635.318V133.841H669.555V143.048H625.105V82.3H668.497V91.5075Z" fill="black"/>
<path d="M700.388 143.048H690.176V82.3H700.388V143.048Z" fill="black"/>
<path d="M763.057 143.048L751.945 124.633C751.376 124.713 750.463 124.739 749.193 124.739H734.747V143.048H724.534V82.3H749.193C756.919 82.3 762.912 84.1256 767.185 87.7504C771.484 91.3487 773.641 96.4552 773.641 103.043C773.641 107.912 772.543 112.026 770.36 115.373C768.204 118.733 765.095 121.181 761.047 122.728L774.699 143.048H763.057ZM734.747 115.532H749.193C758.996 115.532 763.904 111.457 763.904 103.308C763.904 95.4498 758.996 91.5075 749.193 91.5075H734.747V115.532Z" fill="black"/>
<path d="M834.629 129.343H803.99L798.169 143.048H787.533L814.309 82.3H824.839L851.403 143.048H840.449L834.629 129.343ZM830.713 120.241L819.283 93.2537L807.8 120.241H830.713Z" fill="black"/>
<path d="M428.791 163.157C436.649 163.157 443.74 165.247 450.064 169.401L445.83 178.397C439.613 174.666 433.673 172.788 427.998 172.788C424.928 172.788 422.507 173.343 420.748 174.428C418.975 175.526 418.102 177.1 418.102 179.138C418.102 181.148 418.909 182.868 420.536 184.27C422.15 185.686 424.188 186.731 426.622 187.393C429.056 188.067 431.675 188.914 434.506 189.933C437.364 190.925 439.983 191.983 442.391 193.108C444.825 194.245 446.836 196.018 448.423 198.452C450.037 200.86 450.858 203.744 450.858 207.13C450.858 212.462 448.714 216.735 444.455 219.936C440.221 223.111 434.718 224.699 427.945 224.699C423.288 224.699 418.79 223.839 414.451 222.106C410.112 220.346 406.328 218.005 403.127 215.068L407.519 206.178C410.588 209.035 413.948 211.245 417.626 212.793C421.29 214.314 424.783 215.068 428.103 215.068C431.702 215.068 434.48 214.42 436.464 213.11C438.475 211.814 439.48 209.988 439.48 207.66C439.48 205.583 438.66 203.836 437.046 202.421C435.419 201.019 433.395 199.974 430.961 199.299C428.527 198.637 425.881 197.817 423.023 196.865C420.192 195.912 417.573 194.907 415.139 193.848C412.731 192.764 410.72 191.031 409.106 188.663C407.479 186.308 406.672 183.45 406.672 180.09C406.672 174.944 408.683 170.83 412.705 167.76C416.753 164.691 422.124 163.157 428.791 163.157Z" fill="black"/>
<path d="M510.174 210.623H479.535L473.714 224.328H463.078L489.854 163.58H500.384L526.948 224.328H515.995L510.174 210.623ZM506.258 201.521L494.828 174.534L483.345 201.521H506.258Z" fill="black"/>
<path d="M595.799 224.328H585.745L553.36 180.778V224.328H543.147V163.58H553.201L585.745 207.236V163.58H595.799V224.328Z" fill="black"/>
<path d="M661.503 172.788H642.242V224.328H631.976V172.788H612.82V163.58H661.503V172.788Z" fill="black"/>
<path d="M682.64 172.153C688.845 166.266 696.478 163.315 705.553 163.315C714.655 163.315 722.288 166.266 728.466 172.153C734.671 178.013 737.779 185.276 737.779 193.954C737.779 202.633 734.671 209.935 728.466 215.862C722.288 221.788 714.655 224.752 705.553 224.752C696.478 224.752 688.845 221.788 682.64 215.862C676.462 209.935 673.38 202.633 673.38 193.954C673.38 185.276 676.462 178.013 682.64 172.153ZM705.659 172.523C699.627 172.523 694.467 174.587 690.207 178.714C685.934 182.842 683.804 187.922 683.804 193.954C683.804 199.987 685.948 205.106 690.26 209.3C694.56 213.467 699.693 215.544 705.659 215.544C711.612 215.544 716.692 213.467 720.899 209.3C725.132 205.106 727.249 199.987 727.249 193.954C727.249 187.922 725.132 182.842 720.899 178.714C716.692 174.587 711.612 172.523 705.659 172.523Z" fill="black"/>
<path d="M776.788 163.157C784.646 163.157 791.737 165.247 798.06 169.401L793.827 178.397C787.609 174.666 781.669 172.788 775.994 172.788C772.925 172.788 770.504 173.343 768.744 174.428C766.972 175.526 766.098 177.1 766.098 179.138C766.098 181.148 766.905 182.868 768.533 184.27C770.147 185.686 772.184 186.731 774.618 187.393C777.052 188.067 779.672 188.914 782.503 189.933C785.36 190.925 787.98 191.983 790.387 193.108C792.821 194.245 794.832 196.018 796.42 198.452C798.034 200.86 798.854 203.744 798.854 207.13C798.854 212.462 796.711 216.735 792.451 219.936C788.218 223.111 782.714 224.699 775.941 224.699C771.284 224.699 766.786 223.839 762.447 222.106C758.108 220.346 754.325 218.005 751.123 215.068L755.515 206.178C758.584 209.035 761.945 211.245 765.622 212.793C769.287 214.314 772.779 215.068 776.1 215.068C779.698 215.068 782.476 214.42 784.461 213.11C786.471 211.814 787.477 209.988 787.477 207.66C787.477 205.583 786.657 203.836 785.043 202.421C783.415 201.019 781.391 199.974 778.957 199.299C776.523 198.637 773.877 197.817 771.02 196.865C768.189 195.912 765.569 194.907 763.135 193.848C760.727 192.764 758.717 191.031 757.103 188.663C755.475 186.308 754.668 183.45 754.668 180.09C754.668 174.944 756.679 170.83 760.701 167.76C764.749 164.691 770.12 163.157 776.788 163.157Z" fill="black"/>
<path d="M135.197 316.476H122.92L120.592 321.979H116.358L127.047 297.691H131.281L141.864 321.979H137.525L135.197 316.476ZM133.609 312.825L129.058 302.03L124.455 312.825H133.609Z" fill="black"/>
<path d="M169.682 321.979L165.237 314.624C164.986 314.664 164.615 314.677 164.126 314.677H158.358V321.979H154.231V297.691H164.126C167.222 297.691 169.629 298.418 171.323 299.86C173.042 301.315 173.916 303.353 173.916 305.999C173.916 307.943 173.466 309.584 172.593 310.92C171.706 312.269 170.476 313.235 168.889 313.83L174.339 321.979H169.682ZM158.358 310.973H164.126C168.042 310.973 170 309.359 170 306.104C170 302.929 168.042 301.342 164.126 301.342H158.358V310.973Z" fill="black"/>
<path d="M212.008 321.768L213.648 324.678C211.638 326.438 209.428 327.324 207.034 327.324C205.552 327.324 204.137 326.861 202.8 325.948C201.451 325.062 200.287 323.792 199.308 322.138C195.67 322.138 192.614 320.961 190.153 318.593C187.68 316.238 186.449 313.328 186.449 309.862C186.449 306.369 187.68 303.459 190.153 301.13C192.654 298.776 195.723 297.585 199.361 297.585C202.986 297.585 206.042 298.776 208.515 301.13C210.976 303.459 212.22 306.356 212.22 309.809C212.22 312.56 211.399 315.021 209.785 317.164C208.198 319.281 206.095 320.736 203.488 321.503C204.864 323.011 206.2 323.779 207.51 323.779C208.807 323.779 210.315 323.104 212.008 321.768ZM193.17 303.723C191.476 305.39 190.63 307.427 190.63 309.862C190.63 312.269 191.49 314.307 193.223 316C194.942 317.667 196.993 318.487 199.361 318.487C201.755 318.487 203.806 317.667 205.499 316C207.193 314.307 208.039 312.269 208.039 309.862C208.039 307.427 207.193 305.39 205.499 303.723C203.806 302.07 201.755 301.236 199.361 301.236C196.953 301.236 194.889 302.07 193.17 303.723Z" fill="black"/>
<path d="M246.921 297.691V311.925C246.921 315.1 245.968 317.614 244.063 319.439C242.185 321.239 239.618 322.138 236.338 322.138C233.057 322.138 230.464 321.239 228.559 319.439C226.68 317.614 225.754 315.1 225.754 311.925V297.691H229.882V311.925C229.882 313.936 230.464 315.55 231.628 316.741C232.792 317.905 234.38 318.487 236.391 318.487C238.362 318.487 239.909 317.905 241.047 316.741C242.211 315.577 242.793 313.976 242.793 311.925V297.691H246.921Z" fill="black"/>
<path d="M266.011 321.979H261.883V297.691H266.011V321.979Z" fill="black"/>
<path d="M298.113 301.342H290.388V321.979H286.313V301.342H278.64V297.691H298.113V301.342Z" fill="black"/>
<path d="M328.084 301.342H314.855V307.904H326.709V311.608H314.855V318.275H328.508V321.979H310.728V297.691H328.084V301.342Z" fill="black"/>
<path d="M359.247 301.342H351.521V321.979H347.447V301.342H339.774V297.691H359.247V301.342Z" fill="black"/>
<path d="M392.552 297.691V311.925C392.552 315.1 391.6 317.614 389.695 319.439C387.816 321.239 385.25 322.138 381.969 322.138C378.688 322.138 376.095 321.239 374.19 319.439C372.312 317.614 371.386 315.1 371.386 311.925V297.691H375.513V311.925C375.513 313.936 376.095 315.55 377.259 316.741C378.423 317.905 380.011 318.487 382.022 318.487C383.993 318.487 385.541 317.905 386.678 316.741C387.843 315.577 388.425 313.976 388.425 311.925V297.691H392.552Z" fill="black"/>
<path d="M422.966 321.979L418.521 314.624C418.27 314.664 417.899 314.677 417.41 314.677H411.642V321.979H407.515V297.691H417.41C420.506 297.691 422.913 298.418 424.607 299.86C426.326 301.315 427.2 303.353 427.2 305.999C427.2 307.943 426.75 309.584 425.877 310.92C424.99 312.269 423.76 313.235 422.172 313.83L427.623 321.979H422.966ZM411.642 310.973H417.41C421.326 310.973 423.284 309.359 423.284 306.104C423.284 302.929 421.326 301.342 417.41 301.342H411.642V310.973Z" fill="black"/>
<path d="M457.46 316.476H445.184L442.855 321.979H438.622L449.311 297.691H453.544L464.128 321.979H459.789L457.46 316.476ZM455.873 312.825L451.322 302.03L446.718 312.825H455.873Z" fill="black"/>
<path d="M511.938 301.342H498.708V307.904H510.562V311.608H498.708V318.275H512.361V321.979H494.581V297.691H511.938V301.342Z" fill="black"/>
<path d="M565.262 297.691V311.925C565.262 315.1 564.309 317.614 562.404 319.439C560.526 321.239 557.959 322.138 554.678 322.138C551.397 322.138 548.805 321.239 546.9 319.439C545.021 317.614 544.095 315.1 544.095 311.925V297.691H548.222V311.925C548.222 313.936 548.805 315.55 549.969 316.741C551.133 317.905 552.72 318.487 554.731 318.487C556.702 318.487 558.25 317.905 559.388 316.741C560.552 315.577 561.134 313.976 561.134 311.925V297.691H565.262Z" fill="black"/>
<path d="M595.676 321.979L591.231 314.624C590.979 314.664 590.609 314.677 590.119 314.677H584.351V321.979H580.224V297.691H590.119C593.215 297.691 595.623 298.418 597.316 299.86C599.036 301.315 599.909 303.353 599.909 305.999C599.909 307.943 599.459 309.584 598.586 310.92C597.7 312.269 596.469 313.235 594.882 313.83L600.332 321.979H595.676ZM584.351 310.973H590.119C594.035 310.973 595.993 309.359 595.993 306.104C595.993 302.929 594.035 301.342 590.119 301.342H584.351V310.973Z" fill="black"/>
<path d="M614.453 297.691H625.037C627.537 297.691 629.508 298.246 630.963 299.331C632.445 300.389 633.186 301.871 633.186 303.776C633.186 305.125 632.789 306.29 632.022 307.269C631.281 308.221 630.236 308.856 628.9 309.174C630.514 309.465 631.784 310.153 632.71 311.237C633.662 312.296 634.138 313.658 634.138 315.312C634.138 317.402 633.345 319.043 631.757 320.233C630.17 321.397 628 321.979 625.248 321.979H614.453V297.691ZM618.581 301.342V307.745H624.825C626.122 307.745 627.153 307.467 627.894 306.898C628.635 306.303 629.006 305.509 629.006 304.517C629.006 303.498 628.635 302.718 627.894 302.189C627.153 301.633 626.122 301.342 624.825 301.342H618.581ZM618.581 311.343V318.328H624.825C626.439 318.328 627.696 318.037 628.582 317.429C629.455 316.794 629.905 315.92 629.905 314.783C629.905 313.724 629.442 312.904 628.529 312.296C627.643 311.661 626.413 311.343 624.825 311.343H618.581Z" fill="black"/>
<path d="M663.809 316.476H651.532L649.204 321.979H644.971L655.66 297.691H659.893L670.477 321.979H666.137L663.809 316.476ZM662.222 312.825L657.671 302.03L653.067 312.825H662.222Z" fill="black"/>
<path d="M703.957 321.979H699.882L686.971 304.57V321.979H682.843V297.691H686.865L699.882 315.153V297.691H703.957V321.979Z" fill="black"/>
<path d="M723.595 321.979H719.468V297.691H723.595V321.979Z" fill="black"/>
<path d="M747.072 297.532C750.208 297.532 753.052 298.365 755.592 300.019L753.899 303.617C751.425 302.109 749.044 301.342 746.755 301.342C745.551 301.342 744.599 301.58 743.897 302.03C743.183 302.453 742.839 303.075 742.839 303.882C742.839 304.702 743.157 305.39 743.792 305.946C744.427 306.515 745.22 306.938 746.173 307.216C747.152 307.467 748.21 307.798 749.348 308.221C750.512 308.618 751.57 309.041 752.523 309.491C753.502 309.954 754.322 310.655 754.957 311.608C755.592 312.56 755.91 313.724 755.91 315.1C755.91 317.217 755.036 318.937 753.317 320.233C751.623 321.503 749.427 322.138 746.755 322.138C744.876 322.138 743.077 321.794 741.357 321.08C739.624 320.379 738.103 319.439 736.807 318.275L738.606 314.73C739.796 315.868 741.146 316.741 742.627 317.376C744.109 317.984 745.498 318.275 746.808 318.275C748.25 318.275 749.361 318.011 750.142 317.482C750.949 316.952 751.359 316.238 751.359 315.312C751.359 314.465 751.015 313.764 750.353 313.195C749.718 312.64 748.898 312.23 747.919 311.978C746.967 311.7 745.922 311.383 744.797 311.026C743.659 310.642 742.601 310.232 741.622 309.809C740.67 309.359 739.849 308.644 739.188 307.692C738.553 306.739 738.235 305.602 738.235 304.252C738.235 302.215 739.042 300.588 740.67 299.384C742.284 298.154 744.427 297.532 747.072 297.532Z" fill="black"/>
<path d="M795.523 321.979H791.713V303.829L784.04 319.439H781.341L773.668 303.829V321.979H769.805V297.691H774.674L782.717 313.83L790.707 297.691H795.523V321.979Z" fill="black"/>
<path d="M812.741 301.13C815.241 298.776 818.31 297.585 821.948 297.585C825.573 297.585 828.629 298.776 831.103 301.13C833.563 303.459 834.807 306.369 834.807 309.862C834.807 313.328 833.563 316.238 831.103 318.593C828.629 320.961 825.573 322.138 821.948 322.138C818.31 322.138 815.241 320.961 812.741 318.593C810.267 316.238 809.037 313.328 809.037 309.862C809.037 306.369 810.267 303.459 812.741 301.13ZM821.948 301.236C819.541 301.236 817.477 302.07 815.757 303.723C814.064 305.39 813.217 307.427 813.217 309.862C813.217 312.269 814.077 314.307 815.81 316C817.53 317.667 819.58 318.487 821.948 318.487C824.343 318.487 826.393 317.667 828.087 316C829.78 314.307 830.627 312.269 830.627 309.862C830.627 307.427 829.78 305.39 828.087 303.723C826.393 302.07 824.343 301.236 821.948 301.236Z" fill="black"/>
<mask id="mask0_14_156" style="mask-type:luminance" maskUnits="userSpaceOnUse" x="192" y="101" width="162" height="160">
<path d="M192.789 101.6H353.06V260.773H192.789V101.6Z" fill="white"/>
</mask>
<g mask="url(#mask0_14_156)">
<path d="M246.367 103.783L193.08 143.034L351.988 260.085V181.584L246.367 103.783Z" fill="black"/>
</g>
<mask id="mask1_14_156" style="mask-type:luminance" maskUnits="userSpaceOnUse" x="0" y="0" width="247" height="261">
<path d="M0 0H246.975V260.773H0V0Z" fill="white"/>
</mask>
<g mask="url(#mask1_14_156)">
<path d="M246.38 78.6474L0.0661621 260.085V181.584L246.38 0.145508V78.6474Z" fill="#F3BA69"/>
</g>
<path d="M829.648 178.337C827.386 178.337 825.574 177.676 824.198 176.327C822.848 174.99 822.187 173.509 822.187 171.882C822.187 170.228 822.624 168.865 823.51 167.807C824.383 166.749 825.415 165.981 826.579 165.479C824.74 164.288 823.827 162.648 823.827 160.557C823.827 158.904 824.383 157.541 825.521 156.483C826.645 155.424 828.233 154.895 830.283 154.895C832.321 154.895 833.882 155.451 834.94 156.536C835.998 157.634 836.527 158.917 836.527 160.399C836.527 162.621 835.39 164.367 833.141 165.637C834.728 166.735 836.078 167.953 837.215 169.289C837.916 168.098 838.551 166.775 839.12 165.32L842.295 166.219C841.555 168.164 840.562 170.082 839.332 171.987C840.456 173.654 841.475 175.718 842.401 178.179L838.697 178.337C838.446 177.491 837.877 176.313 837.004 174.792C834.781 177.16 832.321 178.337 829.648 178.337ZM827.055 169.077C826.381 169.858 826.05 170.77 826.05 171.829C826.05 172.861 826.381 173.707 827.055 174.369C827.756 175.004 828.616 175.321 829.648 175.321C830.707 175.321 831.712 175.03 832.665 174.422C833.643 173.826 834.49 173.046 835.205 172.093C833.723 170.162 831.937 168.574 829.86 167.331C828.696 167.728 827.756 168.31 827.055 169.077ZM830.072 164.05C830.839 163.706 831.474 163.23 831.977 162.621C832.506 161.986 832.77 161.272 832.77 160.452C832.77 159.645 832.559 159.01 832.135 158.547C831.712 158.057 831.037 157.806 830.125 157.806C828.391 157.806 827.532 158.679 827.532 160.399C827.532 161.96 828.378 163.177 830.072 164.05Z" fill="#F3BA69"/>
</svg>
