<svg width="331" height="70" viewBox="0 0 331 70" fill="none" xmlns="http://www.w3.org/2000/svg">
<g clip-path="url(#clip0_15_2)">
<path d="M316.989 0H14.0106C6.27275 0 0 6.26801 0 14V56C0 63.732 6.27275 70 14.0106 70H316.989C324.727 70 331 63.732 331 56V14C331 6.26801 324.727 0 316.989 0Z" fill="#25D366"/>
<path fill-rule="evenodd" clip-rule="evenodd" d="M48.5925 15.658C53.6756 15.6825 58.581 17.6768 62.2504 21.1916C66.008 24.7914 68.1737 29.6182 68.363 34.8164C68.548 39.8927 66.7744 44.8791 63.4105 48.6873C59.721 52.864 54.5889 55.2627 49.0459 55.4218C48.8563 55.4272 48.6665 55.4299 48.4768 55.4299C45.4901 55.4299 42.5312 54.757 39.8511 53.4683L29.4341 55.7835C29.4103 55.7882 29.3856 55.7871 29.3623 55.7803C29.339 55.7735 29.3176 55.7613 29.2999 55.7447C29.2822 55.728 29.2688 55.7074 29.2606 55.6845C29.2525 55.6616 29.25 55.6371 29.2532 55.6131L31.0129 45.0879C29.5112 42.346 28.673 39.2567 28.5826 36.1142C28.4302 30.8046 30.3562 25.7537 34.0058 21.8915C37.7897 17.8871 42.9569 15.658 48.4939 15.658H48.5925ZM48.4817 19.1084C48.3224 19.1084 48.1631 19.1107 48.0039 19.1153C38.9382 19.3751 31.7742 26.9565 32.0343 36.0154C32.1138 38.7814 32.8937 41.4967 34.2896 43.8674L34.5926 44.3812L33.2888 51.5233L40.3618 49.8551L40.896 50.1328C43.2265 51.3445 45.8379 51.9796 48.4762 51.9796C48.633 51.9796 48.7901 51.9773 48.9468 51.9727C58.0127 51.713 65.1767 44.1317 64.9166 35.0728C64.6611 26.1739 57.3344 19.1084 48.4817 19.1084ZM41.6016 25.9376C41.9342 25.948 42.2674 25.9574 42.5582 25.9788C42.9135 26.0043 43.3069 26.033 43.6554 26.8762C44.069 27.8773 44.9636 30.3769 45.0808 30.6304C45.1979 30.884 45.2722 31.1782 45.0955 31.5067C44.9188 31.8344 44.8291 32.0402 44.571 32.3239C44.3123 32.6079 44.0261 32.9588 43.795 33.1756C43.5368 33.417 43.2685 33.6795 43.5445 34.188C43.8203 34.6967 44.7722 36.3622 46.2162 37.7316C48.0719 39.4914 49.56 40.072 50.151 40.3475C50.3643 40.4471 50.5416 40.4943 50.6964 40.4943C50.909 40.4943 51.0791 40.4052 51.2414 40.2409C51.5524 39.9259 52.4883 38.8346 52.8824 38.3325C53.0885 38.0699 53.2752 37.9768 53.4778 37.9768C53.64 37.9768 53.8125 38.0364 54.0139 38.1168C54.4665 38.2974 56.8843 39.5808 57.3761 39.8459C57.8679 40.1109 58.1968 40.2462 58.3153 40.4579C58.4337 40.6707 58.4029 41.6701 57.9509 42.8234C57.4989 43.9768 55.4257 45.0391 54.5074 45.094C54.2386 45.1103 53.9742 45.1477 53.63 45.1477C52.798 45.1477 51.5006 44.9288 48.5536 43.6606C43.5394 41.503 40.4946 36.2012 40.255 35.8607C40.0159 35.5196 38.2993 33.0902 38.3748 30.6329C38.4503 28.1759 39.7776 27.0072 40.2508 26.5216C40.7044 26.0559 41.2242 25.9371 41.5597 25.9371L41.6016 25.9376Z" fill="white"/>
<path d="M102.594 40.915V44H92.377V40.915H102.594ZM93.6689 24.8047V44H89.7139V24.8047H93.6689ZM101.263 32.6226V35.6284H92.377V32.6226H101.263ZM102.581 24.8047V27.9028H92.377V24.8047H102.581ZM108.382 32.7808V44H104.585V29.7354H108.145L108.382 32.7808ZM107.828 36.3667H106.8C106.8 35.312 106.936 34.3628 107.208 33.519C107.481 32.6665 107.863 31.9414 108.355 31.3438C108.848 30.7373 109.432 30.2759 110.109 29.9595C110.794 29.6343 111.559 29.4717 112.403 29.4717C113.071 29.4717 113.682 29.5684 114.235 29.7617C114.789 29.9551 115.264 30.2627 115.659 30.6846C116.063 31.1064 116.371 31.6646 116.582 32.3589C116.802 33.0532 116.912 33.9014 116.912 34.9033V44H113.088V34.8901C113.088 34.2573 113 33.7651 112.825 33.4136C112.649 33.062 112.39 32.8159 112.047 32.6753C111.713 32.5259 111.3 32.4512 110.808 32.4512C110.298 32.4512 109.854 32.5522 109.476 32.7544C109.107 32.9565 108.799 33.2378 108.553 33.5981C108.316 33.9497 108.136 34.3628 108.013 34.8374C107.89 35.312 107.828 35.8218 107.828 36.3667ZM124.65 41.2314L127.814 29.7354H131.783L126.971 44H124.571L124.65 41.2314ZM122.475 29.7354L125.652 41.2446L125.718 44H123.306L118.494 29.7354H122.475ZM137.491 29.7354V44H133.681V29.7354H137.491ZM133.444 26.0176C133.444 25.4639 133.637 25.0068 134.024 24.6465C134.411 24.2861 134.929 24.106 135.58 24.106C136.221 24.106 136.735 24.2861 137.122 24.6465C137.518 25.0068 137.715 25.4639 137.715 26.0176C137.715 26.5713 137.518 27.0283 137.122 27.3887C136.735 27.749 136.221 27.9292 135.58 27.9292C134.929 27.9292 134.411 27.749 134.024 27.3887C133.637 27.0283 133.444 26.5713 133.444 26.0176ZM148.328 40.7832V34.4287C148.328 33.9717 148.253 33.5806 148.104 33.2554C147.955 32.9214 147.722 32.6621 147.405 32.4775C147.098 32.293 146.698 32.2007 146.206 32.2007C145.784 32.2007 145.419 32.2754 145.111 32.4248C144.804 32.5654 144.566 32.772 144.399 33.0444C144.232 33.3081 144.149 33.6201 144.149 33.9805H140.352C140.352 33.374 140.493 32.7983 140.774 32.2534C141.055 31.7085 141.464 31.2295 142 30.8164C142.536 30.3945 143.173 30.0649 143.912 29.8276C144.659 29.5903 145.494 29.4717 146.417 29.4717C147.524 29.4717 148.508 29.6562 149.37 30.0254C150.231 30.3945 150.908 30.9482 151.4 31.6865C151.901 32.4248 152.151 33.3477 152.151 34.4551V40.5591C152.151 41.3413 152.2 41.9829 152.296 42.4839C152.393 42.9761 152.534 43.4067 152.718 43.7759V44H148.882C148.697 43.6133 148.557 43.1299 148.46 42.5498C148.372 41.9609 148.328 41.3721 148.328 40.7832ZM148.829 35.312L148.855 37.4609H146.733C146.232 37.4609 145.797 37.5181 145.428 37.6323C145.059 37.7466 144.755 37.9092 144.518 38.1201C144.281 38.3223 144.105 38.5596 143.991 38.832C143.885 39.1045 143.833 39.4033 143.833 39.7285C143.833 40.0537 143.907 40.3481 144.057 40.6118C144.206 40.8667 144.421 41.0688 144.703 41.2183C144.984 41.3589 145.313 41.4292 145.691 41.4292C146.263 41.4292 146.759 41.3149 147.181 41.0864C147.603 40.8579 147.928 40.5767 148.157 40.2427C148.394 39.9087 148.517 39.5923 148.526 39.2935L149.528 40.9019C149.387 41.2622 149.194 41.6357 148.948 42.0225C148.71 42.4092 148.407 42.7739 148.038 43.1167C147.669 43.4507 147.225 43.7275 146.707 43.9473C146.188 44.1582 145.573 44.2637 144.861 44.2637C143.956 44.2637 143.134 44.0835 142.396 43.7231C141.666 43.354 141.086 42.8486 140.655 42.207C140.233 41.5566 140.022 40.8184 140.022 39.9922C140.022 39.2451 140.163 38.5815 140.444 38.0015C140.726 37.4214 141.139 36.9336 141.684 36.5381C142.237 36.1338 142.927 35.8306 143.753 35.6284C144.58 35.4175 145.538 35.312 146.627 35.312H148.829ZM158.875 32.8467V44H155.078V29.7354H158.651L158.875 32.8467ZM163.173 29.6431L163.107 33.1631C162.922 33.1367 162.698 33.1147 162.435 33.0972C162.18 33.0708 161.947 33.0576 161.736 33.0576C161.2 33.0576 160.734 33.1279 160.338 33.2686C159.952 33.4004 159.626 33.5981 159.363 33.8618C159.108 34.1255 158.915 34.4463 158.783 34.8242C158.66 35.2021 158.589 35.6328 158.572 36.1162L157.807 35.8789C157.807 34.9561 157.899 34.1079 158.084 33.3345C158.269 32.5522 158.537 31.8711 158.888 31.291C159.249 30.7109 159.688 30.2627 160.207 29.9463C160.725 29.6299 161.318 29.4717 161.986 29.4717C162.197 29.4717 162.413 29.4893 162.632 29.5244C162.852 29.5508 163.032 29.5903 163.173 29.6431ZM176.554 40.9546L180.377 24.8047H182.513L183.001 27.4941L178.927 44H176.633L176.554 40.9546ZM174.59 24.8047L177.754 40.9546L177.49 44H174.933L170.674 24.8047H174.59ZM186.363 40.8887L189.487 24.8047H193.403L189.158 44H186.6L186.363 40.8887ZM183.713 24.8047L187.562 41.0205L187.457 44H185.163L181.063 27.481L181.59 24.8047H183.713ZM199.019 23.75V44H195.222V23.75H199.019ZM198.479 36.3667H197.437C197.446 35.3735 197.578 34.4595 197.833 33.6245C198.087 32.7808 198.452 32.0513 198.927 31.436C199.401 30.812 199.968 30.3286 200.627 29.9858C201.295 29.6431 202.034 29.4717 202.842 29.4717C203.545 29.4717 204.183 29.5728 204.754 29.7749C205.334 29.9683 205.831 30.2847 206.244 30.7241C206.666 31.1548 206.991 31.7217 207.219 32.4248C207.448 33.1279 207.562 33.9805 207.562 34.9824V44H203.739V34.9561C203.739 34.3232 203.646 33.8267 203.462 33.4663C203.286 33.0972 203.027 32.8379 202.684 32.6885C202.35 32.5303 201.937 32.4512 201.445 32.4512C200.9 32.4512 200.434 32.5522 200.047 32.7544C199.669 32.9565 199.366 33.2378 199.138 33.5981C198.909 33.9497 198.742 34.3628 198.637 34.8374C198.531 35.312 198.479 35.8218 198.479 36.3667ZM218.148 40.7832V34.4287C218.148 33.9717 218.074 33.5806 217.924 33.2554C217.775 32.9214 217.542 32.6621 217.226 32.4775C216.918 32.293 216.518 32.2007 216.026 32.2007C215.604 32.2007 215.239 32.2754 214.932 32.4248C214.624 32.5654 214.387 32.772 214.22 33.0444C214.053 33.3081 213.969 33.6201 213.969 33.9805H210.172C210.172 33.374 210.313 32.7983 210.594 32.2534C210.875 31.7085 211.284 31.2295 211.82 30.8164C212.356 30.3945 212.994 30.0649 213.732 29.8276C214.479 29.5903 215.314 29.4717 216.237 29.4717C217.344 29.4717 218.329 29.6562 219.19 30.0254C220.051 30.3945 220.728 30.9482 221.22 31.6865C221.721 32.4248 221.972 33.3477 221.972 34.4551V40.5591C221.972 41.3413 222.02 41.9829 222.117 42.4839C222.213 42.9761 222.354 43.4067 222.539 43.7759V44H218.702C218.518 43.6133 218.377 43.1299 218.28 42.5498C218.192 41.9609 218.148 41.3721 218.148 40.7832ZM218.649 35.312L218.676 37.4609H216.553C216.052 37.4609 215.617 37.5181 215.248 37.6323C214.879 37.7466 214.576 37.9092 214.338 38.1201C214.101 38.3223 213.925 38.5596 213.811 38.832C213.706 39.1045 213.653 39.4033 213.653 39.7285C213.653 40.0537 213.728 40.3481 213.877 40.6118C214.026 40.8667 214.242 41.0688 214.523 41.2183C214.804 41.3589 215.134 41.4292 215.512 41.4292C216.083 41.4292 216.58 41.3149 217.001 41.0864C217.423 40.8579 217.749 40.5767 217.977 40.2427C218.214 39.9087 218.337 39.5923 218.346 39.2935L219.348 40.9019C219.208 41.2622 219.014 41.6357 218.768 42.0225C218.531 42.4092 218.228 42.7739 217.858 43.1167C217.489 43.4507 217.045 43.7275 216.527 43.9473C216.008 44.1582 215.393 44.2637 214.681 44.2637C213.776 44.2637 212.954 44.0835 212.216 43.7231C211.486 43.354 210.906 42.8486 210.476 42.207C210.054 41.5566 209.843 40.8184 209.843 39.9922C209.843 39.2451 209.983 38.5815 210.265 38.0015C210.546 37.4214 210.959 36.9336 211.504 36.5381C212.058 36.1338 212.748 35.8306 213.574 35.6284C214.4 35.4175 215.358 35.312 216.448 35.312H218.649ZM231.886 29.7354V32.4248H223.58V29.7354H231.886ZM225.637 26.2153H229.434V39.7021C229.434 40.1152 229.486 40.4316 229.592 40.6514C229.706 40.8711 229.873 41.0249 230.093 41.1128C230.312 41.1919 230.589 41.2314 230.923 41.2314C231.161 41.2314 231.372 41.2227 231.556 41.2051C231.75 41.1787 231.912 41.1523 232.044 41.126L232.057 43.9209C231.732 44.0264 231.38 44.1099 231.002 44.1714C230.625 44.2329 230.207 44.2637 229.75 44.2637C228.915 44.2637 228.186 44.1274 227.562 43.855C226.946 43.5737 226.472 43.1255 226.138 42.5103C225.804 41.895 225.637 41.0864 225.637 40.0845V26.2153ZM241.76 40.0581C241.76 39.7856 241.681 39.5396 241.523 39.3198C241.365 39.1001 241.07 38.8979 240.64 38.7134C240.218 38.52 239.607 38.3442 238.807 38.186C238.086 38.0278 237.414 37.8301 236.79 37.5928C236.175 37.3467 235.639 37.0522 235.182 36.7095C234.733 36.3667 234.382 35.9624 234.127 35.4966C233.872 35.022 233.745 34.4814 233.745 33.875C233.745 33.2773 233.872 32.7148 234.127 32.1875C234.391 31.6602 234.764 31.1943 235.248 30.79C235.74 30.377 236.337 30.0562 237.041 29.8276C237.752 29.5903 238.552 29.4717 239.44 29.4717C240.679 29.4717 241.743 29.6694 242.63 30.0649C243.527 30.4604 244.212 31.0054 244.687 31.6997C245.17 32.3853 245.412 33.1675 245.412 34.0464H241.615C241.615 33.6772 241.536 33.3477 241.378 33.0576C241.229 32.7588 240.991 32.5259 240.666 32.3589C240.35 32.1831 239.937 32.0952 239.427 32.0952C239.005 32.0952 238.64 32.1699 238.333 32.3193C238.025 32.46 237.788 32.6533 237.621 32.8994C237.462 33.1367 237.383 33.4004 237.383 33.6904C237.383 33.9102 237.427 34.1079 237.515 34.2837C237.612 34.4507 237.766 34.6045 237.977 34.7451C238.188 34.8857 238.46 35.0176 238.794 35.1406C239.137 35.2549 239.559 35.3604 240.06 35.457C241.088 35.668 242.006 35.9448 242.815 36.2876C243.624 36.6216 244.265 37.0786 244.74 37.6587C245.214 38.23 245.452 38.9814 245.452 39.9131C245.452 40.5459 245.311 41.126 245.03 41.6533C244.749 42.1807 244.344 42.6421 243.817 43.0376C243.29 43.4243 242.657 43.7275 241.918 43.9473C241.189 44.1582 240.367 44.2637 239.453 44.2637C238.126 44.2637 237.001 44.0264 236.078 43.5518C235.164 43.0771 234.47 42.4751 233.995 41.7456C233.529 41.0073 233.296 40.2515 233.296 39.478H236.896C236.913 39.9966 237.045 40.4141 237.291 40.7305C237.546 41.0469 237.867 41.2754 238.253 41.416C238.649 41.5566 239.075 41.627 239.532 41.627C240.024 41.627 240.433 41.561 240.758 41.4292C241.083 41.2886 241.33 41.104 241.497 40.8755C241.672 40.6382 241.76 40.3657 241.76 40.0581ZM255.616 40.7832V34.4287C255.616 33.9717 255.542 33.5806 255.392 33.2554C255.243 32.9214 255.01 32.6621 254.693 32.4775C254.386 32.293 253.986 32.2007 253.494 32.2007C253.072 32.2007 252.707 32.2754 252.399 32.4248C252.092 32.5654 251.854 32.772 251.688 33.0444C251.521 33.3081 251.437 33.6201 251.437 33.9805H247.64C247.64 33.374 247.781 32.7983 248.062 32.2534C248.343 31.7085 248.752 31.2295 249.288 30.8164C249.824 30.3945 250.461 30.0649 251.2 29.8276C251.947 29.5903 252.782 29.4717 253.705 29.4717C254.812 29.4717 255.796 29.6562 256.658 30.0254C257.519 30.3945 258.196 30.9482 258.688 31.6865C259.189 32.4248 259.439 33.3477 259.439 34.4551V40.5591C259.439 41.3413 259.488 41.9829 259.584 42.4839C259.681 42.9761 259.822 43.4067 260.006 43.7759V44H256.17C255.985 43.6133 255.845 43.1299 255.748 42.5498C255.66 41.9609 255.616 41.3721 255.616 40.7832ZM256.117 35.312L256.144 37.4609H254.021C253.52 37.4609 253.085 37.5181 252.716 37.6323C252.347 37.7466 252.043 37.9092 251.806 38.1201C251.569 38.3223 251.393 38.5596 251.279 38.832C251.173 39.1045 251.121 39.4033 251.121 39.7285C251.121 40.0537 251.195 40.3481 251.345 40.6118C251.494 40.8667 251.709 41.0688 251.991 41.2183C252.272 41.3589 252.602 41.4292 252.979 41.4292C253.551 41.4292 254.047 41.3149 254.469 41.0864C254.891 40.8579 255.216 40.5767 255.445 40.2427C255.682 39.9087 255.805 39.5923 255.814 39.2935L256.816 40.9019C256.675 41.2622 256.482 41.6357 256.236 42.0225C255.999 42.4092 255.695 42.7739 255.326 43.1167C254.957 43.4507 254.513 43.7275 253.995 43.9473C253.476 44.1582 252.861 44.2637 252.149 44.2637C251.244 44.2637 250.422 44.0835 249.684 43.7231C248.954 43.354 248.374 42.8486 247.943 42.207C247.521 41.5566 247.311 40.8184 247.311 39.9922C247.311 39.2451 247.451 38.5815 247.732 38.0015C248.014 37.4214 248.427 36.9336 248.972 36.5381C249.525 36.1338 250.215 35.8306 251.042 35.6284C251.868 35.4175 252.826 35.312 253.916 35.312H256.117ZM266.163 32.4775V49.4844H262.366V29.7354H265.886L266.163 32.4775ZM275.194 36.7095V36.9863C275.194 38.0234 275.071 38.9858 274.825 39.8735C274.587 40.7612 274.236 41.5347 273.77 42.1938C273.304 42.8442 272.724 43.354 272.03 43.7231C271.344 44.0835 270.553 44.2637 269.657 44.2637C268.787 44.2637 268.031 44.0879 267.389 43.7363C266.748 43.3848 266.207 42.8926 265.768 42.2598C265.337 41.6182 264.99 40.8755 264.726 40.0317C264.462 39.188 264.26 38.2827 264.12 37.3159V36.5908C264.26 35.5537 264.462 34.6045 264.726 33.7432C264.99 32.873 265.337 32.1216 265.768 31.4888C266.207 30.8472 266.743 30.3506 267.376 29.999C268.018 29.6475 268.769 29.4717 269.63 29.4717C270.536 29.4717 271.331 29.6431 272.017 29.9858C272.711 30.3286 273.291 30.8208 273.757 31.4624C274.231 32.104 274.587 32.8687 274.825 33.7563C275.071 34.644 275.194 35.6284 275.194 36.7095ZM271.384 36.9863V36.7095C271.384 36.103 271.331 35.5449 271.226 35.0352C271.129 34.5166 270.971 34.064 270.751 33.6772C270.54 33.2905 270.259 32.9917 269.907 32.7808C269.564 32.561 269.147 32.4512 268.655 32.4512C268.136 32.4512 267.692 32.5347 267.323 32.7017C266.963 32.8687 266.668 33.1104 266.44 33.4268C266.211 33.7432 266.04 34.1211 265.926 34.5605C265.812 35 265.741 35.4966 265.715 36.0503V37.8828C265.759 38.5332 265.882 39.1177 266.084 39.6362C266.286 40.146 266.598 40.5503 267.02 40.8491C267.442 41.1479 267.996 41.2974 268.681 41.2974C269.182 41.2974 269.604 41.1875 269.947 40.9678C270.29 40.7393 270.566 40.4272 270.777 40.0317C270.997 39.6362 271.151 39.1792 271.239 38.6606C271.335 38.1421 271.384 37.584 271.384 36.9863ZM281.351 32.4775V49.4844H277.554V29.7354H281.074L281.351 32.4775ZM290.381 36.7095V36.9863C290.381 38.0234 290.258 38.9858 290.012 39.8735C289.775 40.7612 289.423 41.5347 288.958 42.1938C288.492 42.8442 287.912 43.354 287.217 43.7231C286.532 44.0835 285.741 44.2637 284.844 44.2637C283.974 44.2637 283.218 44.0879 282.577 43.7363C281.935 43.3848 281.395 42.8926 280.955 42.2598C280.524 41.6182 280.177 40.8755 279.914 40.0317C279.65 39.188 279.448 38.2827 279.307 37.3159V36.5908C279.448 35.5537 279.65 34.6045 279.914 33.7432C280.177 32.873 280.524 32.1216 280.955 31.4888C281.395 30.8472 281.931 30.3506 282.563 29.999C283.205 29.6475 283.957 29.4717 284.818 29.4717C285.723 29.4717 286.519 29.6431 287.204 29.9858C287.898 30.3286 288.479 30.8208 288.944 31.4624C289.419 32.104 289.775 32.8687 290.012 33.7563C290.258 34.644 290.381 35.6284 290.381 36.7095ZM286.571 36.9863V36.7095C286.571 36.103 286.519 35.5449 286.413 35.0352C286.316 34.5166 286.158 34.064 285.938 33.6772C285.728 33.2905 285.446 32.9917 285.095 32.7808C284.752 32.561 284.334 32.4512 283.842 32.4512C283.324 32.4512 282.88 32.5347 282.511 32.7017C282.15 32.8687 281.856 33.1104 281.627 33.4268C281.399 33.7432 281.228 34.1211 281.113 34.5605C280.999 35 280.929 35.4966 280.902 36.0503V37.8828C280.946 38.5332 281.069 39.1177 281.271 39.6362C281.474 40.146 281.786 40.5503 282.208 40.8491C282.629 41.1479 283.183 41.2974 283.869 41.2974C284.37 41.2974 284.792 41.1875 285.134 40.9678C285.477 40.7393 285.754 40.4272 285.965 40.0317C286.185 39.6362 286.338 39.1792 286.426 38.6606C286.523 38.1421 286.571 37.584 286.571 36.9863Z" fill="white"/>
</g>
<defs>
<clipPath id="clip0_15_2">
<rect width="331" height="70" fill="white"/>
</clipPath>
</defs>
</svg>
