<svg width="331" height="70" viewBox="0 0 331 70" fill="none" xmlns="http://www.w3.org/2000/svg">
<path d="M316.989 0H14.0106C6.27275 0 0 6.26801 0 14V56C0 63.732 6.27275 70 14.0106 70H316.989C324.727 70 331 63.732 331 56V14C331 6.26801 324.727 0 316.989 0Z" fill="#18AEEE"/>
<path d="M102.594 40.915V44H92.377V40.915H102.594ZM93.6689 24.8047V44H89.7139V24.8047H93.6689ZM101.263 32.6226V35.6284H92.377V32.6226H101.263ZM102.581 24.8047V27.9028H92.377V24.8047H102.581ZM108.382 32.7808V44H104.585V29.7354H108.145L108.382 32.7808ZM107.828 36.3667H106.8C106.8 35.312 106.936 34.3628 107.208 33.519C107.481 32.6665 107.863 31.9414 108.355 31.3438C108.848 30.7373 109.432 30.2759 110.109 29.9595C110.794 29.6343 111.559 29.4717 112.403 29.4717C113.071 29.4717 113.682 29.5684 114.235 29.7617C114.789 29.9551 115.264 30.2627 115.659 30.6846C116.063 31.1064 116.371 31.6646 116.582 32.3589C116.802 33.0532 116.912 33.9014 116.912 34.9033V44H113.088V34.8901C113.088 34.2573 113 33.7651 112.825 33.4136C112.649 33.062 112.39 32.8159 112.047 32.6753C111.713 32.5259 111.3 32.4512 110.808 32.4512C110.298 32.4512 109.854 32.5522 109.476 32.7544C109.107 32.9565 108.799 33.2378 108.553 33.5981C108.316 33.9497 108.136 34.3628 108.013 34.8374C107.89 35.312 107.828 35.8218 107.828 36.3667ZM124.65 41.2314L127.814 29.7354H131.783L126.971 44H124.571L124.65 41.2314ZM122.475 29.7354L125.652 41.2446L125.718 44H123.306L118.494 29.7354H122.475ZM137.491 29.7354V44H133.681V29.7354H137.491ZM133.444 26.0176C133.444 25.4639 133.637 25.0068 134.024 24.6465C134.411 24.2861 134.929 24.106 135.58 24.106C136.221 24.106 136.735 24.2861 137.122 24.6465C137.518 25.0068 137.715 25.4639 137.715 26.0176C137.715 26.5713 137.518 27.0283 137.122 27.3887C136.735 27.749 136.221 27.9292 135.58 27.9292C134.929 27.9292 134.411 27.749 134.024 27.3887C133.637 27.0283 133.444 26.5713 133.444 26.0176ZM148.328 40.7832V34.4287C148.328 33.9717 148.253 33.5806 148.104 33.2554C147.955 32.9214 147.722 32.6621 147.405 32.4775C147.098 32.293 146.698 32.2007 146.206 32.2007C145.784 32.2007 145.419 32.2754 145.111 32.4248C144.804 32.5654 144.566 32.772 144.399 33.0444C144.232 33.3081 144.149 33.6201 144.149 33.9805H140.352C140.352 33.374 140.493 32.7983 140.774 32.2534C141.055 31.7085 141.464 31.2295 142 30.8164C142.536 30.3945 143.173 30.0649 143.912 29.8276C144.659 29.5903 145.494 29.4717 146.417 29.4717C147.524 29.4717 148.508 29.6562 149.37 30.0254C150.231 30.3945 150.908 30.9482 151.4 31.6865C151.901 32.4248 152.151 33.3477 152.151 34.4551V40.5591C152.151 41.3413 152.2 41.9829 152.296 42.4839C152.393 42.9761 152.534 43.4067 152.718 43.7759V44H148.882C148.697 43.6133 148.557 43.1299 148.46 42.5498C148.372 41.9609 148.328 41.3721 148.328 40.7832ZM148.829 35.312L148.855 37.4609H146.733C146.232 37.4609 145.797 37.5181 145.428 37.6323C145.059 37.7466 144.755 37.9092 144.518 38.1201C144.281 38.3223 144.105 38.5596 143.991 38.832C143.885 39.1045 143.833 39.4033 143.833 39.7285C143.833 40.0537 143.907 40.3481 144.057 40.6118C144.206 40.8667 144.421 41.0688 144.703 41.2183C144.984 41.3589 145.313 41.4292 145.691 41.4292C146.263 41.4292 146.759 41.3149 147.181 41.0864C147.603 40.8579 147.928 40.5767 148.157 40.2427C148.394 39.9087 148.517 39.5923 148.526 39.2935L149.528 40.9019C149.387 41.2622 149.194 41.6357 148.948 42.0225C148.71 42.4092 148.407 42.7739 148.038 43.1167C147.669 43.4507 147.225 43.7275 146.707 43.9473C146.188 44.1582 145.573 44.2637 144.861 44.2637C143.956 44.2637 143.134 44.0835 142.396 43.7231C141.666 43.354 141.086 42.8486 140.655 42.207C140.233 41.5566 140.022 40.8184 140.022 39.9922C140.022 39.2451 140.163 38.5815 140.444 38.0015C140.726 37.4214 141.139 36.9336 141.684 36.5381C142.237 36.1338 142.927 35.8306 143.753 35.6284C144.58 35.4175 145.538 35.312 146.627 35.312H148.829ZM158.875 32.8467V44H155.078V29.7354H158.651L158.875 32.8467ZM163.173 29.6431L163.107 33.1631C162.922 33.1367 162.698 33.1147 162.435 33.0972C162.18 33.0708 161.947 33.0576 161.736 33.0576C161.2 33.0576 160.734 33.1279 160.338 33.2686C159.952 33.4004 159.626 33.5981 159.363 33.8618C159.108 34.1255 158.915 34.4463 158.783 34.8242C158.66 35.2021 158.589 35.6328 158.572 36.1162L157.807 35.8789C157.807 34.9561 157.899 34.1079 158.084 33.3345C158.269 32.5522 158.537 31.8711 158.888 31.291C159.249 30.7109 159.688 30.2627 160.207 29.9463C160.725 29.6299 161.318 29.4717 161.986 29.4717C162.197 29.4717 162.413 29.4893 162.632 29.5244C162.852 29.5508 163.032 29.5903 163.173 29.6431ZM184.807 40.915V44H174.59V40.915H184.807ZM175.882 24.8047V44H171.927V24.8047H175.882ZM183.476 32.6226V35.6284H174.59V32.6226H183.476ZM184.794 24.8047V27.9028H174.59V24.8047H184.794ZM194.365 34.2705V37.25H186.917V34.2705H194.365ZM201.326 32.6885V44H197.516V29.7354H201.089L201.326 32.6885ZM200.799 36.3667H199.744C199.744 35.3735 199.863 34.4595 200.1 33.6245C200.346 32.7808 200.702 32.0513 201.168 31.436C201.643 30.812 202.227 30.3286 202.921 29.9858C203.616 29.6431 204.42 29.4717 205.334 29.4717C205.967 29.4717 206.547 29.5684 207.074 29.7617C207.602 29.9463 208.054 30.2407 208.432 30.645C208.819 31.0405 209.118 31.5591 209.329 32.2007C209.54 32.8335 209.645 33.5938 209.645 34.4814V44H205.848V34.9033C205.848 34.2529 205.76 33.752 205.584 33.4004C205.409 33.0488 205.158 32.8027 204.833 32.6621C204.517 32.5215 204.134 32.4512 203.686 32.4512C203.194 32.4512 202.763 32.5522 202.394 32.7544C202.034 32.9565 201.735 33.2378 201.498 33.5981C201.26 33.9497 201.084 34.3628 200.97 34.8374C200.856 35.312 200.799 35.8218 200.799 36.3667ZM209.289 35.9316L207.931 36.103C207.931 35.1714 208.045 34.3057 208.274 33.5059C208.511 32.7061 208.858 32.0029 209.315 31.3965C209.781 30.79 210.357 30.3198 211.042 29.9858C211.728 29.6431 212.519 29.4717 213.416 29.4717C214.101 29.4717 214.725 29.5728 215.288 29.7749C215.85 29.9683 216.329 30.2803 216.725 30.7109C217.129 31.1328 217.437 31.6865 217.647 32.3721C217.867 33.0576 217.977 33.897 217.977 34.8901V44H214.167V34.8901C214.167 34.231 214.079 33.73 213.903 33.3872C213.736 33.0356 213.49 32.7939 213.165 32.6621C212.849 32.5215 212.471 32.4512 212.031 32.4512C211.574 32.4512 211.174 32.5435 210.832 32.728C210.489 32.9038 210.203 33.1499 209.975 33.4663C209.746 33.7827 209.575 34.1519 209.46 34.5737C209.346 34.9868 209.289 35.4395 209.289 35.9316ZM228.616 40.7832V34.4287C228.616 33.9717 228.542 33.5806 228.392 33.2554C228.243 32.9214 228.01 32.6621 227.693 32.4775C227.386 32.293 226.986 32.2007 226.494 32.2007C226.072 32.2007 225.707 32.2754 225.399 32.4248C225.092 32.5654 224.854 32.772 224.688 33.0444C224.521 33.3081 224.437 33.6201 224.437 33.9805H220.64C220.64 33.374 220.781 32.7983 221.062 32.2534C221.343 31.7085 221.752 31.2295 222.288 30.8164C222.824 30.3945 223.461 30.0649 224.2 29.8276C224.947 29.5903 225.782 29.4717 226.705 29.4717C227.812 29.4717 228.796 29.6562 229.658 30.0254C230.519 30.3945 231.196 30.9482 231.688 31.6865C232.189 32.4248 232.439 33.3477 232.439 34.4551V40.5591C232.439 41.3413 232.488 41.9829 232.584 42.4839C232.681 42.9761 232.822 43.4067 233.006 43.7759V44H229.17C228.985 43.6133 228.845 43.1299 228.748 42.5498C228.66 41.9609 228.616 41.3721 228.616 40.7832ZM229.117 35.312L229.144 37.4609H227.021C226.52 37.4609 226.085 37.5181 225.716 37.6323C225.347 37.7466 225.043 37.9092 224.806 38.1201C224.569 38.3223 224.393 38.5596 224.279 38.832C224.173 39.1045 224.121 39.4033 224.121 39.7285C224.121 40.0537 224.195 40.3481 224.345 40.6118C224.494 40.8667 224.709 41.0688 224.991 41.2183C225.272 41.3589 225.602 41.4292 225.979 41.4292C226.551 41.4292 227.047 41.3149 227.469 41.0864C227.891 40.8579 228.216 40.5767 228.445 40.2427C228.682 39.9087 228.805 39.5923 228.814 39.2935L229.816 40.9019C229.675 41.2622 229.482 41.6357 229.236 42.0225C228.999 42.4092 228.695 42.7739 228.326 43.1167C227.957 43.4507 227.513 43.7275 226.995 43.9473C226.476 44.1582 225.861 44.2637 225.149 44.2637C224.244 44.2637 223.422 44.0835 222.684 43.7231C221.954 43.354 221.374 42.8486 220.943 42.207C220.521 41.5566 220.311 40.8184 220.311 39.9922C220.311 39.2451 220.451 38.5815 220.732 38.0015C221.014 37.4214 221.427 36.9336 221.972 36.5381C222.525 36.1338 223.215 35.8306 224.042 35.6284C224.868 35.4175 225.826 35.312 226.916 35.312H229.117ZM239.374 29.7354V44H235.564V29.7354H239.374ZM235.327 26.0176C235.327 25.4639 235.52 25.0068 235.907 24.6465C236.293 24.2861 236.812 24.106 237.462 24.106C238.104 24.106 238.618 24.2861 239.005 24.6465C239.4 25.0068 239.598 25.4639 239.598 26.0176C239.598 26.5713 239.4 27.0283 239.005 27.3887C238.618 27.749 238.104 27.9292 237.462 27.9292C236.812 27.9292 236.293 27.749 235.907 27.3887C235.52 27.0283 235.327 26.5713 235.327 26.0176ZM246.52 23.75V44H242.709V23.75H246.52Z" fill="white"/>
<path d="M68.9166 22.25C68.9166 20.0041 67.0791 18.1666 64.8333 18.1666H32.1666C29.9208 18.1666 28.0833 20.0041 28.0833 22.25V46.75C28.0833 48.9958 29.9208 50.8333 32.1666 50.8333H64.8333C67.0791 50.8333 68.9166 48.9958 68.9166 46.75V22.25ZM64.8333 22.25L48.5 32.4583L32.1666 22.25H64.8333ZM64.8333 46.75H32.1666V26.3333L48.5 36.5416L64.8333 26.3333V46.75Z" fill="white"/>
</svg>
