<svg xmlns="http://www.w3.org/2000/svg" xmlns:xlink="http://www.w3.org/1999/xlink" width="500" zoomAndPan="magnify" viewBox="0 0 375 374.999991" height="500" preserveAspectRatio="xMidYMid meet" version="1.0"><defs><clipPath id="c7a425489c"><path d="M 142.59375 112.5 L 232.59375 112.5 L 232.59375 262.5 L 142.59375 262.5 Z M 142.59375 112.5 " clip-rule="nonzero"/></clipPath></defs><g clip-path="url(#c7a425489c)"><path fill="#231f20" d="M 218.863281 112.695312 L 218.84375 112.5 L 199.835938 112.5 L 199.820312 112.617188 L 160.582031 151.769531 L 160.484375 151.769531 L 142.734375 262.480469 L 192.828125 262.480469 L 232.4375 222.957031 Z M 182.4375 223.210938 L 187.75 223.210938 L 192.484375 262.035156 L 143.535156 262.035156 Z M 161.214844 151.769531 L 194.417969 118.636719 L 199.695312 113.371094 L 196.269531 134.734375 L 179.199219 151.769531 Z M 195.308594 136.324219 L 195.613281 138.824219 L 190.269531 172.160156 L 186.921875 144.695312 Z M 190.464844 173.769531 L 195.808594 140.433594 L 205.847656 222.769531 L 196.4375 222.769531 Z M 187.695312 222.765625 L 182.609375 222.765625 L 185.5 204.75 Z M 196.496094 223.210938 L 205.90625 223.210938 L 208.6875 246.027344 L 200.296875 254.398438 Z M 218.105469 112.945312 L 196.8125 134.195312 L 200.21875 112.945312 Z M 160.863281 152.21875 L 179.089844 152.21875 L 185.300781 203.144531 L 182.140625 222.882812 L 143.324219 261.609375 Z M 160.863281 152.21875 " fill-opacity="1" fill-rule="nonzero"/></g></svg>