<svg xmlns="http://www.w3.org/2000/svg" xmlns:xlink="http://www.w3.org/1999/xlink" width="500" zoomAndPan="magnify" viewBox="0 0 375 374.999991" height="500" preserveAspectRatio="xMidYMid meet" version="1.0"><defs><clipPath id="890f4ce2b8"><path d="M 190 112.5 L 222 112.5 L 222 115 L 190 115 Z M 190 112.5 " clip-rule="nonzero"/></clipPath><clipPath id="ce1ae0c691"><path d="M 219 231 L 229 231 L 229 262.5 L 219 262.5 Z M 219 231 " clip-rule="nonzero"/></clipPath><clipPath id="19c2130109"><path d="M 134.90625 169 L 138 169 L 138 219 L 134.90625 219 Z M 134.90625 169 " clip-rule="nonzero"/></clipPath><clipPath id="ab9463f8ec"><path d="M 237 145 L 239.90625 145 L 239.90625 168 L 237 168 Z M 237 145 " clip-rule="nonzero"/></clipPath></defs><path fill="#231f20" d="M 168.160156 119.316406 L 163.894531 119.316406 L 160.238281 122.984375 L 164.5 122.984375 Z M 168.160156 119.316406 " fill-opacity="1" fill-rule="nonzero"/><path fill="#231f20" d="M 208.34375 119.316406 L 173.628906 119.316406 L 169.972656 122.984375 L 204.6875 122.984375 Z M 208.34375 119.316406 " fill-opacity="1" fill-rule="nonzero"/><g clip-path="url(#890f4ce2b8)"><path fill="#231f20" d="M 221.53125 112.652344 L 191.863281 112.652344 L 190.03125 114.484375 L 219.703125 114.484375 Z M 221.53125 112.652344 " fill-opacity="1" fill-rule="nonzero"/></g><path fill="#231f20" d="M 232.265625 215.835938 L 232.265625 198.914062 L 222.636719 198.914062 L 216.078125 205.480469 L 216.078125 222.40625 L 225.707031 222.40625 Z M 222.792969 199.296875 L 231.613281 199.296875 L 225.546875 205.371094 L 216.726562 205.371094 Z M 216.460938 205.753906 L 225.4375 205.753906 L 225.4375 222.023438 L 216.460938 222.023438 Z M 216.460938 205.753906 " fill-opacity="1" fill-rule="nonzero"/><g clip-path="url(#ce1ae0c691)"><path fill="#231f20" d="M 219.492188 235.722656 L 219.492188 262.367188 L 225.074219 262.367188 L 228.84375 258.589844 L 228.84375 231.945312 L 223.265625 231.945312 Z M 219.875 235.996094 L 224.808594 235.996094 L 224.808594 261.984375 L 219.875 261.984375 Z M 228.191406 232.328125 L 224.917969 235.609375 L 220.148438 235.609375 L 223.421875 232.328125 Z M 228.191406 232.328125 " fill-opacity="1" fill-rule="nonzero"/></g><path fill="#231f20" d="M 144.597656 208.136719 L 144.597656 236.1875 L 154.226562 236.1875 L 160.785156 229.617188 L 160.785156 201.566406 L 151.15625 201.566406 Z M 144.980469 208.40625 L 153.957031 208.40625 L 153.957031 235.804688 L 144.980469 235.804688 Z M 160.136719 201.949219 L 154.070312 208.023438 L 145.25 208.023438 L 151.316406 201.949219 Z M 160.136719 201.949219 " fill-opacity="1" fill-rule="nonzero"/><path fill="#231f20" d="M 216.21875 192.367188 L 225.707031 192.367188 L 232.226562 185.835938 L 232.226562 128.253906 L 221.683594 128.253906 L 224.65625 125.273438 L 182.984375 125.273438 L 180.007812 128.253906 L 151.414062 128.253906 L 144.898438 134.785156 L 144.898438 156.566406 L 140.207031 161.167969 L 140.207031 197.539062 L 144.898438 192.839844 L 144.898438 199.71875 L 154.496094 199.71875 L 154.496094 199.609375 L 160.902344 193.191406 L 160.902344 168.792969 C 160.902344 162.914062 163.230469 155.859375 166.976562 150.371094 C 172.324219 146.394531 178.675781 144.292969 185.355469 144.292969 C 202.371094 144.292969 216.21875 158.160156 216.21875 175.210938 Z M 151.574219 128.636719 L 179.632812 128.636719 L 177.039062 131.230469 L 218.710938 131.230469 L 221.304688 128.636719 L 231.574219 128.636719 L 225.550781 134.667969 L 145.546875 134.667969 Z M 185.355469 143.90625 C 178.582031 143.90625 172.140625 146.039062 166.722656 150.082031 C 160.039062 155.0625 155.734375 162.269531 154.488281 170.320312 C 154.265625 171.199219 154.148438 171.742188 154.148438 171.742188 L 154.148438 173.804688 C 154.128906 174.269531 154.113281 174.738281 154.113281 175.210938 L 154.113281 199.34375 L 145.28125 199.34375 L 145.28125 135.050781 L 225.4375 135.050781 L 225.4375 191.980469 L 216.601562 191.980469 L 216.601562 175.199219 C 216.601562 157.949219 202.585938 143.90625 185.355469 143.90625 Z M 185.355469 143.90625 " fill-opacity="1" fill-rule="nonzero"/><path fill="#231f20" d="M 232.027344 240.121094 L 238.535156 233.597656 L 238.535156 215.960938 L 232.027344 222.375 Z M 232.027344 240.121094 " fill-opacity="1" fill-rule="nonzero"/><g clip-path="url(#19c2130109)"><path fill="#231f20" d="M 134.90625 218.566406 L 137.398438 216.070312 L 137.398438 169.847656 L 134.90625 172.238281 Z M 134.90625 218.566406 " fill-opacity="1" fill-rule="nonzero"/></g><g clip-path="url(#ab9463f8ec)"><path fill="#231f20" d="M 237.402344 147.851562 L 237.402344 167.195312 L 239.894531 164.699219 L 239.894531 145.460938 Z M 237.402344 147.851562 " fill-opacity="1" fill-rule="nonzero"/></g></svg>