<svg xmlns="http://www.w3.org/2000/svg" xmlns:xlink="http://www.w3.org/1999/xlink" width="500" zoomAndPan="magnify" viewBox="0 0 375 374.999991" height="500" preserveAspectRatio="xMidYMid meet" version="1.0"><defs><clipPath id="b809b65865"><path d="M 112.5 112.5 L 262.5 112.5 L 262.5 262.5 L 112.5 262.5 Z M 112.5 112.5 " clip-rule="nonzero"/></clipPath></defs><g clip-path="url(#b809b65865)"><path fill="#231f20" d="M 126.09375 248.648438 L 126.351562 248.90625 L 112.757812 262.5 L 112.5 262.246094 Z M 248.144531 126.597656 L 248.402344 126.855469 L 236.117188 139.140625 L 236.023438 139.046875 L 236.023438 230.679688 L 227.652344 239.046875 L 136.722656 239.046875 L 130.339844 245.433594 L 129.566406 244.660156 L 135.949219 238.277344 L 135.949219 147.355469 L 144.320312 138.984375 L 235.953125 138.984375 L 235.859375 138.886719 Z M 136.574219 147.246094 L 227.5 147.246094 L 235.402344 139.34375 L 144.476562 139.34375 Z M 157.457031 218.320312 C 163.773438 224.445312 172.378906 228.222656 181.855469 228.222656 C 193.226562 228.222656 203.347656 222.78125 209.761719 214.367188 C 203.933594 218.261719 197.164062 220.320312 190.125 220.320312 C 180.550781 220.320312 171.851562 216.5 165.46875 210.308594 Z M 216.925781 193.148438 C 216.925781 183.675781 213.148438 175.070312 207.023438 168.75 L 165.722656 210.050781 C 172.039062 216.175781 180.644531 219.953125 190.121094 219.953125 C 197.441406 219.953125 204.460938 217.710938 210.421875 213.46875 C 214.515625 207.734375 216.925781 200.71875 216.925781 193.148438 Z M 206.25 167.976562 C 199.933594 161.851562 191.328125 158.074219 181.851562 158.074219 C 174.28125 158.074219 167.265625 160.484375 161.53125 164.578125 C 157.289062 170.539062 155.046875 177.558594 155.046875 184.878906 C 155.046875 194.351562 158.824219 202.960938 164.949219 209.277344 Z M 160.632812 165.242188 C 152.21875 171.65625 146.777344 181.773438 146.777344 193.148438 C 146.777344 202.621094 150.554688 211.226562 156.679688 217.546875 L 164.6875 209.539062 C 158.496094 203.15625 154.679688 194.460938 154.679688 184.886719 C 154.683594 177.839844 156.738281 171.070312 160.632812 165.242188 Z M 137.089844 238.683594 L 227.390625 238.683594 L 227.390625 147.609375 L 136.316406 147.609375 L 136.316406 237.910156 L 156.425781 217.800781 C 150.234375 211.417969 146.417969 202.722656 146.417969 193.148438 C 146.417969 173.609375 162.3125 157.710938 181.855469 157.710938 C 201.394531 157.710938 217.292969 173.609375 217.292969 193.148438 C 217.292969 212.691406 201.394531 228.585938 181.855469 228.585938 C 172.28125 228.585938 163.582031 224.765625 157.199219 218.578125 Z M 251.753906 122.992188 L 252.011719 123.25 L 254.691406 120.570312 L 254.429688 120.3125 Z M 262.484375 115.34375 L 259.65625 115.34375 L 259.660156 112.519531 L 259.296875 112.519531 L 259.292969 115.339844 L 256.46875 115.339844 L 256.46875 115.703125 L 259.292969 115.703125 L 259.289062 118.53125 L 259.652344 118.53125 L 259.65625 115.703125 L 262.484375 115.703125 Z M 262.484375 115.34375 " fill-opacity="1" fill-rule="nonzero"/></g></svg>