<svg xmlns="http://www.w3.org/2000/svg" xmlns:xlink="http://www.w3.org/1999/xlink" width="500" zoomAndPan="magnify" viewBox="0 0 375 374.999991" height="500" preserveAspectRatio="xMidYMid meet" version="1.0"><defs><clipPath id="868e82acd1"><path d="M 154.6875 112.5 L 220.6875 112.5 L 220.6875 262.5 L 154.6875 262.5 Z M 154.6875 112.5 " clip-rule="nonzero"/></clipPath></defs><g clip-path="url(#868e82acd1)"><path fill="#231f20" d="M 190.859375 112.539062 L 190.785156 112.539062 L 172.441406 130.777344 L 172.441406 215.773438 L 154.78125 233.332031 L 154.78125 262.515625 L 184.519531 262.515625 L 220.605469 226.636719 L 220.605469 112.5 Z M 183.636719 233.574219 L 155.132812 261.921875 L 155.132812 233.578125 L 183.636719 233.578125 Z M 184.132812 233.574219 L 184.320312 233.574219 L 184.320312 262.167969 L 155.378906 262.167969 Z M 201.976562 215.34375 L 201.644531 215.675781 L 191.03125 215.675781 L 191.03125 131.023438 L 201.976562 131.023438 Z M 202.078125 130.675781 L 191.03125 130.675781 L 191.03125 112.886719 L 220.007812 112.847656 Z M 190.683594 130.675781 L 173.035156 130.675781 L 190.679688 113.132812 L 190.679688 130.675781 Z M 190.683594 131.023438 L 190.683594 215.675781 L 172.789062 215.675781 L 172.789062 131.023438 Z M 201.296875 216.019531 L 191.03125 226.226562 L 191.03125 216.019531 Z M 172.6875 216.019531 L 190.679688 216.019531 L 190.679688 226.574219 L 183.988281 233.230469 L 155.378906 233.230469 Z M 172.6875 216.019531 " fill-opacity="1" fill-rule="nonzero"/></g></svg>