<svg xmlns="http://www.w3.org/2000/svg" xmlns:xlink="http://www.w3.org/1999/xlink" width="500" zoomAndPan="magnify" viewBox="0 0 375 374.999991" height="500" preserveAspectRatio="xMidYMid meet" version="1.0"><defs><clipPath id="4fbd973a22"><path d="M 170 112.5 L 259.96875 112.5 L 259.96875 178 L 170 178 Z M 170 112.5 " clip-rule="nonzero"/></clipPath><clipPath id="22432d6492"><path d="M 135 250 L 259.96875 250 L 259.96875 262.5 L 135 262.5 Z M 135 250 " clip-rule="nonzero"/></clipPath><clipPath id="df90977f51"><path d="M 258 182 L 259.96875 182 L 259.96875 247 L 258 247 Z M 258 182 " clip-rule="nonzero"/></clipPath><clipPath id="4d4a63fba3"><path d="M 115.21875 210 L 155 210 L 155 251 L 115.21875 251 Z M 115.21875 210 " clip-rule="nonzero"/></clipPath><clipPath id="35a1c2a998"><path d="M 115.21875 112.5 L 165 112.5 L 165 208 L 115.21875 208 Z M 115.21875 112.5 " clip-rule="nonzero"/></clipPath></defs><g clip-path="url(#4fbd973a22)"><path fill="#231f20" d="M 259.261719 177.039062 L 259.621094 177.039062 L 259.621094 112.546875 L 170.5625 112.546875 L 170.5625 112.90625 L 259.261719 112.90625 Z M 259.261719 177.039062 " fill-opacity="1" fill-rule="nonzero"/></g><g clip-path="url(#22432d6492)"><path fill="#231f20" d="M 259.261719 262.097656 L 135.816406 262.097656 L 135.816406 250.375 L 135.457031 250.375 L 135.457031 262.457031 L 259.621094 262.457031 L 259.621094 252.027344 L 259.261719 252.027344 Z M 259.261719 262.097656 " fill-opacity="1" fill-rule="nonzero"/></g><path fill="#231f20" d="M 247.117188 167.171875 L 220.347656 167.171875 L 207.34375 180.160156 L 207.34375 206.894531 L 207.703125 206.894531 L 207.828125 207.019531 L 207.953125 206.894531 L 234.109375 206.894531 L 247.113281 193.90625 L 247.113281 167.171875 Z M 220.5 167.527344 L 220.601562 167.527344 L 220.601562 180.050781 L 207.960938 180.050781 Z M 207.808594 206.535156 L 207.707031 206.535156 L 207.707031 180.414062 L 220.601562 180.414062 L 220.601562 193.757812 Z M 233.859375 206.535156 L 208.316406 206.535156 L 220.855469 194.011719 L 233.855469 194.011719 L 233.855469 206.535156 Z M 233.859375 193.652344 L 220.960938 193.652344 L 220.960938 180.414062 L 233.859375 180.414062 Z M 233.964844 180.054688 L 220.960938 180.054688 L 220.960938 167.53125 L 246.507812 167.53125 Z M 233.964844 180.054688 " fill-opacity="1" fill-rule="nonzero"/><g clip-path="url(#df90977f51)"><path fill="#231f20" d="M 258.902344 182.367188 L 259.980469 182.367188 L 259.980469 246.855469 L 258.902344 246.855469 Z M 258.902344 182.367188 " fill-opacity="1" fill-rule="nonzero"/></g><g clip-path="url(#4d4a63fba3)"><path fill="#231f20" d="M 128.222656 210.652344 L 115.21875 223.640625 L 115.21875 250.378906 L 115.578125 250.378906 L 115.703125 250.503906 L 115.828125 250.378906 L 141.988281 250.378906 L 154.992188 237.386719 L 154.992188 210.652344 Z M 128.371094 211.011719 L 128.476562 211.011719 L 128.476562 223.535156 L 115.832031 223.535156 Z M 115.683594 250.015625 L 115.578125 250.015625 L 115.578125 223.894531 L 128.476562 223.894531 L 128.476562 237.238281 Z M 141.734375 250.015625 L 116.1875 250.015625 L 128.726562 237.492188 L 141.734375 237.492188 Z M 141.734375 237.132812 L 128.835938 237.132812 L 128.835938 223.894531 L 141.734375 223.894531 Z M 141.835938 223.535156 L 128.835938 223.535156 L 128.835938 211.011719 L 154.378906 211.011719 Z M 141.835938 223.535156 " fill-opacity="1" fill-rule="nonzero"/></g><g clip-path="url(#35a1c2a998)"><path fill="#231f20" d="M 115.703125 207.019531 L 115.828125 206.894531 L 141.984375 206.894531 L 154.988281 193.90625 L 154.988281 123.691406 L 135.816406 123.691406 L 135.816406 112.90625 L 164.910156 112.90625 L 164.910156 112.546875 L 135.457031 112.546875 L 135.457031 123.691406 L 128.222656 123.691406 L 115.21875 136.679688 L 115.21875 206.894531 L 115.578125 206.894531 Z M 128.835938 124.050781 L 135.457031 124.050781 L 135.457031 130.25 L 135.816406 130.25 L 135.816406 124.050781 L 154.378906 124.050781 L 141.839844 136.570312 L 128.835938 136.570312 Z M 128.835938 136.929688 L 141.734375 136.929688 L 141.734375 193.648438 L 128.835938 193.648438 Z M 141.734375 194.011719 L 141.734375 206.535156 L 116.1875 206.535156 L 128.726562 194.011719 Z M 128.371094 124.050781 L 128.476562 124.050781 L 128.476562 136.570312 L 115.832031 136.570312 Z M 115.578125 136.929688 L 128.476562 136.929688 L 128.476562 193.757812 L 115.683594 206.535156 L 115.578125 206.535156 Z M 115.578125 136.929688 " fill-opacity="1" fill-rule="nonzero"/></g><path fill="#231f20" d="M 161.285156 223.640625 L 161.285156 250.378906 L 161.644531 250.378906 L 161.769531 250.503906 L 161.894531 250.378906 L 188.050781 250.378906 L 201.054688 237.386719 L 201.054688 210.652344 L 174.285156 210.652344 Z M 161.746094 250.015625 L 161.640625 250.015625 L 161.640625 223.894531 L 174.539062 223.894531 L 174.539062 237.238281 Z M 174.902344 211.011719 L 200.445312 211.011719 L 187.90625 223.535156 L 174.90625 223.535156 L 174.90625 211.011719 Z M 174.902344 223.894531 L 187.796875 223.894531 L 187.796875 237.132812 L 174.902344 237.132812 Z M 187.796875 237.492188 L 187.796875 250.015625 L 162.253906 250.015625 L 174.792969 237.492188 Z M 174.542969 211.011719 L 174.542969 223.535156 L 161.898438 223.535156 L 174.4375 211.011719 Z M 174.542969 211.011719 " fill-opacity="1" fill-rule="nonzero"/><path fill="#231f20" d="M 247.117188 123.691406 L 220.347656 123.691406 L 207.34375 136.679688 L 207.34375 163.414062 L 207.703125 163.414062 L 207.828125 163.539062 L 207.953125 163.414062 L 234.109375 163.414062 L 247.113281 150.425781 L 247.113281 123.691406 Z M 220.5 124.050781 L 220.601562 124.050781 L 220.601562 136.570312 L 207.960938 136.570312 Z M 207.808594 163.050781 L 207.707031 163.050781 L 207.707031 136.929688 L 220.601562 136.929688 L 220.601562 150.273438 Z M 233.859375 163.050781 L 208.316406 163.050781 L 220.855469 150.527344 L 233.855469 150.527344 L 233.855469 163.050781 Z M 233.859375 150.171875 L 220.960938 150.171875 L 220.960938 136.929688 L 233.859375 136.929688 Z M 233.964844 136.570312 L 220.960938 136.570312 L 220.960938 124.050781 L 246.507812 124.050781 Z M 233.964844 136.570312 " fill-opacity="1" fill-rule="nonzero"/><path fill="#231f20" d="M 161.773438 147.726562 C 161.773438 156.117188 168.609375 162.945312 177.011719 162.945312 C 181.6875 162.945312 185.875 160.832031 188.675781 157.511719 L 196.398438 149.878906 L 196.441406 149.835938 C 196.710938 149.585938 196.96875 149.324219 197.214844 149.054688 C 199.8125 146.324219 201.40625 142.636719 201.40625 138.585938 C 201.40625 130.191406 194.570312 123.363281 186.167969 123.363281 C 182.15625 123.363281 178.5 124.925781 175.777344 127.464844 C 175.742188 127.496094 175.707031 127.527344 175.667969 127.558594 L 175.535156 127.691406 C 175.421875 127.800781 175.308594 127.917969 175.199219 128.03125 L 174.222656 129.015625 L 166.402344 136.8125 C 166.300781 136.910156 166.199219 137.011719 166.097656 137.117188 L 165.753906 137.460938 L 165.761719 137.46875 C 163.289062 140.179688 161.773438 143.78125 161.773438 147.726562 Z M 177.015625 132.863281 C 185.222656 132.863281 191.898438 139.53125 191.898438 147.726562 C 191.898438 149.4375 191.601562 151.085938 191.066406 152.617188 C 189.535156 153.152344 187.882812 153.449219 186.171875 153.449219 C 177.964844 153.449219 171.289062 146.78125 171.289062 138.585938 C 171.289062 136.875 171.585938 135.230469 172.121094 133.695312 C 173.652344 133.160156 175.300781 132.863281 177.015625 132.863281 Z M 166.34375 137.386719 L 166.667969 137.058594 C 168.097656 135.679688 169.800781 134.578125 171.683594 133.855469 C 171.195312 135.34375 170.925781 136.933594 170.925781 138.585938 C 170.925781 146.980469 177.765625 153.808594 186.167969 153.808594 C 187.820312 153.808594 189.410156 153.539062 190.90625 153.050781 C 188.757812 158.625 183.34375 162.589844 177.015625 162.589844 C 168.8125 162.589844 162.136719 155.925781 162.136719 147.730469 C 162.132812 143.710938 163.742188 140.0625 166.34375 137.386719 Z M 166.34375 137.386719 " fill-opacity="1" fill-rule="nonzero"/><path fill="#231f20" d="M 201.054688 167.171875 L 174.285156 167.171875 L 161.28125 180.160156 L 161.28125 206.894531 L 161.640625 206.894531 L 161.765625 207.019531 L 161.890625 206.894531 L 188.046875 206.894531 L 201.050781 193.90625 L 201.050781 167.171875 Z M 174.4375 167.527344 L 174.542969 167.527344 L 174.542969 180.050781 L 161.898438 180.050781 Z M 161.746094 206.535156 L 161.644531 206.535156 L 161.644531 180.414062 L 174.542969 180.414062 L 174.542969 193.757812 Z M 187.796875 206.535156 L 162.253906 206.535156 L 174.792969 194.011719 L 187.796875 194.011719 Z M 187.796875 193.652344 L 174.902344 193.652344 L 174.902344 180.414062 L 187.796875 180.414062 Z M 187.902344 180.054688 L 174.902344 180.054688 L 174.902344 167.53125 L 200.445312 167.53125 Z M 187.902344 180.054688 " fill-opacity="1" fill-rule="nonzero"/><path fill="#231f20" d="M 207.347656 223.640625 L 207.347656 250.378906 L 207.707031 250.378906 L 207.832031 250.503906 L 207.957031 250.378906 L 234.113281 250.378906 L 247.117188 237.386719 L 247.117188 210.652344 L 220.347656 210.652344 Z M 207.808594 250.015625 L 207.707031 250.015625 L 207.707031 223.894531 L 220.601562 223.894531 L 220.601562 237.238281 Z M 220.960938 211.011719 L 246.507812 211.011719 L 233.96875 223.535156 L 220.964844 223.535156 L 220.964844 211.011719 Z M 220.960938 223.894531 L 233.859375 223.894531 L 233.859375 237.132812 L 220.960938 237.132812 Z M 233.859375 237.492188 L 233.859375 250.015625 L 208.316406 250.015625 L 220.855469 237.492188 Z M 220.601562 211.011719 L 220.601562 223.535156 L 207.960938 223.535156 L 220.5 211.011719 Z M 220.601562 211.011719 " fill-opacity="1" fill-rule="nonzero"/></svg>