<svg xmlns="http://www.w3.org/2000/svg" xmlns:xlink="http://www.w3.org/1999/xlink" width="500" zoomAndPan="magnify" viewBox="0 0 375 374.999991" height="500" preserveAspectRatio="xMidYMid meet" version="1.0"><defs><clipPath id="b666ad9665"><path d="M 113 180.410156 L 262 180.410156 L 262 194.660156 L 113 194.660156 Z M 113 180.410156 " clip-rule="nonzero"/></clipPath></defs><g clip-path="url(#b666ad9665)"><path fill="#231f20" d="M 127.953125 187.527344 C 127.953125 191.453125 124.773438 194.648438 120.867188 194.648438 C 116.964844 194.648438 113.785156 191.457031 113.785156 187.527344 C 113.785156 183.605469 116.964844 180.410156 120.867188 180.410156 C 124.777344 180.410156 127.953125 183.605469 127.953125 187.527344 Z M 259.007812 185.308594 C 257.792969 185.308594 256.800781 186.304688 256.800781 187.527344 C 256.800781 188.753906 257.789062 189.746094 259.007812 189.746094 C 260.226562 189.746094 261.214844 188.753906 261.214844 187.527344 C 261.214844 186.304688 260.226562 185.308594 259.007812 185.308594 Z M 137.199219 187.683594 L 248.773438 187.683594 L 248.773438 187.375 L 137.199219 187.375 Z M 242.519531 191.867188 L 248.773438 191.867188 L 248.773438 191.558594 L 242.519531 191.558594 Z M 175.621094 182.878906 L 137.199219 182.878906 L 137.199219 183.804688 L 175.621094 183.804688 Z M 175.621094 182.878906 " fill-opacity="1" fill-rule="nonzero"/></g></svg>