<svg xmlns="http://www.w3.org/2000/svg" xmlns:xlink="http://www.w3.org/1999/xlink" width="500" zoomAndPan="magnify" viewBox="0 0 375 374.999991" height="500" preserveAspectRatio="xMidYMid meet" version="1.0"><defs><clipPath id="73b89cbc9f"><path d="M 11.027344 10.585938 L 364.277344 10.585938 L 364.277344 364.585938 L 11.027344 364.585938 Z M 11.027344 10.585938 " clip-rule="nonzero"/></clipPath></defs><g clip-path="url(#73b89cbc9f)"><path fill="#231f20" d="M 364.277344 122.425781 C 364.277344 60.761719 314.082031 10.585938 252.386719 10.585938 L 252.203125 10.585938 L 239.324219 23.46875 L 81.050781 23.46875 L 64.347656 40.164062 L 222.613281 40.164062 L 186.636719 76.125 L 186.636719 147.292969 L 155.222656 147.292969 L 175.988281 126.449219 L 140.011719 126.449219 C 120.167969 126.449219 101.132812 134.332031 87.097656 148.355469 L 66.429688 169.015625 L 97.570312 169.015625 L 41.066406 225.503906 L 41.066406 254.28125 L 11.066406 254.28125 L 11.066406 322.96875 L 41.066406 322.96875 L 41.066406 347.609375 L 73.128906 347.609375 L 73.128906 364.550781 L 166.003906 364.550781 L 166.003906 347.609375 L 197.65625 347.609375 L 275.894531 269.402344 L 275.894531 188.15625 L 298.703125 188.15625 L 334.722656 152.152344 L 334.722656 188.875 L 351.875 171.734375 L 351.875 135.007812 L 364.277344 122.609375 Z M 363.390625 121.988281 L 350.910156 121.988281 C 345.925781 78.730469 316.167969 43.015625 276.175781 29.386719 C 268.71875 26.84375 260.902344 25.089844 252.824219 24.1875 L 252.824219 11.464844 C 313.695312 11.699219 363.164062 61.148438 363.390625 121.988281 Z M 278.253906 122.863281 L 330.90625 122.863281 C 333.3125 131.824219 334.636719 141.226562 334.707031 150.925781 L 298.941406 186.675781 C 298.730469 163.226562 291.230469 141.101562 278.253906 122.863281 Z M 277.625 121.988281 C 270.753906 112.523438 262.402344 104.140625 252.832031 97.195312 L 252.832031 44.382812 C 254.992188 44.976562 257.140625 45.609375 259.246094 46.328125 C 293.886719 58.132812 320.835938 86.507812 330.679688 121.996094 L 277.625 121.996094 Z M 252.824219 98.277344 C 261.929688 104.964844 269.902344 112.980469 276.527344 121.988281 L 252.824219 121.988281 Z M 223.613281 40.410156 C 233.410156 40.4375 242.902344 41.742188 251.945312 44.144531 L 251.945312 96.574219 C 243.269531 90.402344 233.628906 85.386719 223.183594 81.835938 C 211.910156 77.992188 200.121094 76.011719 188.109375 75.90625 Z M 251.945312 24.101562 C 248.203125 23.707031 244.402344 23.484375 240.550781 23.46875 L 251.945312 12.078125 Z M 187.515625 76.757812 C 199.628906 76.800781 211.53125 78.78125 222.902344 82.648438 C 233.472656 86.253906 243.210938 91.347656 251.945312 97.644531 L 251.945312 122.242188 L 226.894531 147.285156 L 187.515625 147.285156 Z M 275.019531 187.28125 L 236.515625 187.28125 L 275.019531 148.792969 Z M 235.28125 187.28125 L 188.136719 187.28125 L 227.253906 148.179688 L 274.394531 148.179688 Z M 187.515625 186.65625 L 187.515625 148.171875 L 226.015625 148.171875 Z M 186.636719 148.171875 L 186.636719 188.148438 L 234.402344 188.148438 L 197.296875 225.242188 L 121.652344 225.242188 L 121.652344 169.003906 L 133.597656 169.003906 L 154.355469 148.160156 L 186.636719 148.160156 Z M 197.910156 269.65625 L 274.394531 269.65625 L 197.910156 346.109375 Z M 121.652344 254.28125 L 121.652344 226.125 L 197.039062 226.125 L 197.039062 268.777344 L 166.003906 268.777344 L 166.003906 254.28125 Z M 120.773438 169.015625 L 120.773438 225.25 L 42.558594 225.25 L 98.816406 169.015625 Z M 41.945312 226.125 L 120.773438 226.125 L 120.773438 254.28125 L 41.945312 254.28125 Z M 65.621094 322.980469 L 41.945312 346.128906 L 41.945312 322.96875 L 65.621094 322.96875 Z M 73.121094 337.183594 L 73.121094 346.734375 L 42.578125 346.734375 L 66.867188 322.96875 L 165.996094 322.96875 L 165.996094 269.65625 L 197.03125 269.65625 L 197.03125 346.734375 L 165.996094 346.734375 L 165.996094 337.183594 Z M 275.019531 268.777344 L 197.910156 268.777344 L 197.910156 225.863281 L 235.640625 188.15625 L 275.019531 188.15625 Z M 228.128906 147.292969 L 252.570312 122.863281 L 277.175781 122.863281 C 290.378906 141.207031 297.984375 163.570312 298.070312 187.269531 L 275.886719 187.269531 L 275.886719 147.292969 Z M 351.636719 133.570312 C 351.59375 129.957031 351.382812 126.390625 351.003906 122.871094 L 362.785156 122.871094 L 351.882812 133.773438 L 351.882812 133.316406 Z M 351.636719 133.570312 " fill-opacity="1" fill-rule="nonzero"/></g></svg>