<svg xmlns="http://www.w3.org/2000/svg" xmlns:xlink="http://www.w3.org/1999/xlink" width="500" zoomAndPan="magnify" viewBox="0 0 375 374.999991" height="500" preserveAspectRatio="xMidYMid meet" version="1.0"><defs><clipPath id="c11d74f10c"><path d="M 112.5 118.5 L 262.5 118.5 L 262.5 256.5 L 112.5 256.5 Z M 112.5 118.5 " clip-rule="nonzero"/></clipPath></defs><g clip-path="url(#c11d74f10c)"><path fill="#231f20" d="M 249.542969 196.632812 L 249.542969 186.011719 L 249.5625 185.996094 L 249.542969 185.980469 L 249.542969 185.550781 L 227.476562 185.550781 L 227.476562 163.914062 L 233.96875 157.40625 L 219.074219 157.40625 L 213 163.480469 L 205.40625 163.480469 L 205.40625 141.410156 L 205.1875 141.410156 L 225.042969 121.503906 L 218.105469 121.503906 L 198.195312 141.410156 L 183.335938 141.410156 L 183.335938 119.339844 L 160.960938 119.339844 L 139.691406 140.613281 L 132.261719 140.613281 L 132.261719 118.605469 L 119.027344 131.839844 L 119.027344 153.847656 L 126.457031 153.847656 L 112.5 167.808594 L 112.5 256.382812 L 201.082031 256.382812 L 233.96875 223.496094 L 233.96875 256.171875 L 262.488281 227.652344 L 262.488281 183.738281 Z M 248.96875 185.980469 L 200.984375 233.964844 L 179.496094 233.964844 L 227.46875 185.992188 L 227.453125 185.972656 L 248.96875 185.972656 Z M 227.046875 185.808594 L 179.269531 233.578125 L 179.269531 212.089844 L 188.464844 202.898438 L 188.574219 202.898438 L 227.042969 164.34375 L 227.042969 185.808594 Z M 212.570312 163.90625 L 173.585938 202.894531 L 187.859375 202.894531 L 178.886719 211.867188 L 157.398438 211.867188 L 205.359375 163.90625 Z M 157.09375 190.078125 L 204.976562 142.140625 L 204.976562 163.679688 L 157.09375 211.570312 Z M 197.773438 141.839844 L 178.265625 161.347656 L 185.1875 161.347656 L 156.789062 189.777344 L 135.546875 189.777344 L 183.214844 141.839844 Z M 135.25 167.984375 L 182.910156 120.074219 L 182.910156 141.535156 L 135.25 189.472656 Z M 133.585938 153.847656 L 146.71875 140.613281 L 140.296875 140.613281 L 161.144531 119.769531 L 182.605469 119.769531 L 134.945312 167.683594 L 113.234375 167.683594 L 127.066406 153.847656 Z M 112.929688 168.113281 L 134.820312 168.113281 L 134.820312 190.207031 L 156.664062 190.207031 L 156.664062 212.304688 L 178.84375 212.304688 L 178.84375 234.011719 L 178.820312 234.035156 L 178.84375 234.054688 L 178.84375 234.398438 L 200.777344 234.398438 L 200.777344 255.960938 L 112.929688 255.960938 Z M 201.207031 255.65625 L 201.207031 234.316406 L 201.222656 234.335938 L 249.117188 186.441406 L 249.117188 197.0625 L 233.96875 212.152344 L 233.96875 222.890625 Z M 201.207031 255.65625 " fill-opacity="1" fill-rule="nonzero"/></g></svg>