<svg xmlns="http://www.w3.org/2000/svg" xmlns:xlink="http://www.w3.org/1999/xlink" width="500" zoomAndPan="magnify" viewBox="0 0 375 374.999991" height="500" preserveAspectRatio="xMidYMid meet" version="1.0"><defs><clipPath id="aa12b75156"><path d="M 208 169 L 247.5 169 L 247.5 252 L 208 252 Z M 208 169 " clip-rule="nonzero"/></clipPath><clipPath id="1626f5324f"><path d="M 127.5 112.5 L 215 112.5 L 215 209 L 127.5 209 Z M 127.5 112.5 " clip-rule="nonzero"/></clipPath><clipPath id="3d8e5cee28"><path d="M 140 211 L 194 211 L 194 262.5 L 140 262.5 Z M 140 211 " clip-rule="nonzero"/></clipPath></defs><g clip-path="url(#aa12b75156)"><path fill="#231f20" d="M 228.164062 182.46875 L 228.164062 169.910156 L 227.777344 169.910156 L 227.777344 182.46875 L 221.453125 182.46875 L 208.464844 195.453125 L 208.464844 215.789062 L 227.777344 215.789062 L 227.777344 251.609375 L 228.164062 251.609375 L 228.164062 215.789062 L 234.488281 215.789062 L 247.472656 202.804688 L 247.472656 182.46875 Z M 221.609375 182.855469 L 227.773438 182.855469 L 227.773438 189.742188 L 228.160156 189.742188 L 228.160156 182.855469 L 246.808594 182.855469 L 234.320312 195.339844 L 209.121094 195.339844 Z M 208.851562 195.726562 L 234.214844 195.726562 L 234.214844 215.40625 L 208.851562 215.40625 Z M 208.851562 195.726562 " fill-opacity="1" fill-rule="nonzero"/></g><g clip-path="url(#1626f5324f)"><path fill="#231f20" d="M 214.425781 176.304688 L 214.425781 128.746094 L 196.929688 128.746094 L 196.929688 112.5 L 188.296875 112.5 L 183.367188 117.433594 L 183.367188 128.746094 L 174.792969 128.746094 L 161.808594 141.730469 L 161.808594 182.46875 L 140.773438 182.46875 L 140.773438 162.960938 L 140.390625 162.960938 L 140.390625 182.578125 L 127.511719 195.453125 L 127.511719 205.34375 L 140.386719 205.34375 L 140.386719 208.371094 L 140.769531 208.371094 L 140.769531 205.34375 L 185.273438 205.34375 L 198.257812 192.359375 L 198.257812 189.289062 L 201.433594 189.289062 Z M 162.191406 188.90625 L 162.191406 142.007812 L 183.367188 142.007812 L 183.367188 167.800781 L 189.039062 167.800781 L 189.039062 180.316406 L 189.425781 180.316406 L 189.425781 167.800781 L 191.996094 167.800781 L 191.996094 167.828125 L 196.738281 163.085938 L 196.738281 163.066406 L 196.929688 162.871094 L 196.929688 142.007812 L 201.164062 142.007812 L 201.164062 188.90625 Z M 183.753906 117.703125 L 191.726562 117.703125 L 191.726562 167.414062 L 183.753906 167.414062 Z M 213.765625 129.132812 L 201.277344 141.621094 L 196.925781 141.621094 L 196.925781 129.132812 Z M 188.457031 112.886719 L 196.273438 112.886719 L 191.839844 117.316406 L 184.027344 117.316406 Z M 174.949219 129.132812 L 183.367188 129.132812 L 183.367188 141.621094 L 162.460938 141.621094 Z M 140.769531 189.097656 L 140.769531 182.855469 L 161.804688 182.855469 L 161.804688 189.289062 L 191.164062 189.289062 L 185.109375 195.339844 L 128.171875 195.339844 L 140.386719 183.128906 L 140.386719 189.097656 Z M 127.898438 195.726562 L 185.003906 195.726562 L 185.003906 204.957031 L 127.898438 204.957031 Z M 127.898438 195.726562 " fill-opacity="1" fill-rule="nonzero"/></g><g clip-path="url(#3d8e5cee28)"><path fill="#231f20" d="M 193.59375 211.160156 L 153.960938 211.160156 L 140.976562 224.144531 L 140.976562 249.484375 L 159.144531 249.484375 L 172.15625 262.496094 L 180.609375 262.496094 L 193.664062 249.441406 L 193.664062 238.878906 L 193.59375 236.417969 Z M 154.121094 211.546875 L 192.933594 211.546875 L 180.445312 224.035156 L 141.632812 224.035156 Z M 159.300781 249.097656 L 141.363281 249.097656 L 141.363281 224.417969 L 180.335938 224.417969 L 180.335938 262.113281 L 172.316406 262.113281 Z M 159.300781 249.097656 " fill-opacity="1" fill-rule="nonzero"/></g><path fill="#231f20" d="M 227.390625 151.777344 L 228.546875 151.777344 L 228.546875 165.457031 L 227.390625 165.457031 Z M 227.390625 151.777344 " fill-opacity="1" fill-rule="nonzero"/><path fill="#231f20" d="M 140.382812 159.433594 L 140.765625 159.433594 L 140.769531 157.351562 L 142.851562 157.355469 L 142.851562 156.972656 L 140.769531 156.96875 L 140.769531 154.890625 L 140.386719 154.890625 L 140.386719 156.96875 L 138.304688 156.96875 L 138.304688 157.351562 L 140.386719 157.351562 Z M 140.382812 159.433594 " fill-opacity="1" fill-rule="nonzero"/><path fill="#231f20" d="M 227.777344 255.25 L 228.164062 255.25 L 228.164062 257.539062 L 227.777344 257.539062 Z M 227.777344 255.25 " fill-opacity="1" fill-rule="nonzero"/></svg>