<svg xmlns="http://www.w3.org/2000/svg" xmlns:xlink="http://www.w3.org/1999/xlink" width="500" zoomAndPan="magnify" viewBox="0 0 375 374.999991" height="500" preserveAspectRatio="xMidYMid meet" version="1.0"><defs><clipPath id="23e437ffe2"><path d="M 112.5 138.9375 L 262.5 138.9375 L 262.5 236.4375 L 112.5 236.4375 Z M 112.5 138.9375 " clip-rule="nonzero"/></clipPath></defs><g clip-path="url(#23e437ffe2)"><path fill="#231f20" d="M 234.394531 139.273438 L 252.628906 139.273438 L 252.628906 138.953125 L 177.683594 138.953125 L 177.648438 139.015625 L 140.882812 175.925781 L 118.433594 175.925781 L 118.433594 176.25 L 140.667969 176.25 L 112.5 225.226562 L 124.875 225.226562 L 113.722656 236.425781 L 122.738281 236.425781 L 133.875 225.226562 L 141.027344 225.226562 L 129.875 236.425781 L 138.890625 236.425781 L 150.027344 225.226562 L 225.519531 225.226562 L 262.402344 188.207031 L 262.488281 188.117188 Z M 204.464844 188.253906 L 225.292969 188.253906 L 212.085938 201.511719 Z M 197.21875 175.925781 L 156.792969 175.925781 L 160.597656 169.308594 L 203.8125 169.308594 Z M 156.421875 175.925781 L 141.332031 175.925781 L 147.925781 169.308594 L 160.226562 169.308594 Z M 156.605469 176.25 L 197.195312 176.25 L 203.914062 187.929688 L 149.886719 187.929688 Z M 197.484375 176.117188 L 234.082031 139.375 L 248.6875 164.769531 L 225.613281 187.933594 L 204.28125 187.933594 Z M 233.730469 139.273438 L 218.996094 154.066406 L 169.367188 154.066406 L 177.875 139.273438 Z M 168.996094 154.066406 L 163.109375 154.066406 L 177.03125 140.089844 Z M 141.039062 176.25 L 156.238281 176.25 L 149.484375 187.992188 L 113.527344 224.089844 Z M 150.347656 224.90625 L 177.777344 197.320312 L 168.828125 197.320312 L 141.347656 224.90625 L 134.195312 224.90625 L 161.625 197.320312 L 152.675781 197.320312 L 125.195312 224.90625 L 113.164062 224.90625 L 149.675781 188.25 L 204.09375 188.25 L 225.175781 224.90625 Z M 150.347656 224.90625 " fill-opacity="1" fill-rule="nonzero"/></g></svg>