<svg xmlns="http://www.w3.org/2000/svg" xmlns:xlink="http://www.w3.org/1999/xlink" width="500" zoomAndPan="magnify" viewBox="0 0 375 374.999991" height="500" preserveAspectRatio="xMidYMid meet" version="1.0"><defs><clipPath id="7ab5de873f"><path d="M 112.5 159.09375 L 262.5 159.09375 L 262.5 216.09375 L 112.5 216.09375 Z M 112.5 159.09375 " clip-rule="nonzero"/></clipPath></defs><g clip-path="url(#7ab5de873f)"><path fill="#231f20" d="M 136.402344 202.128906 L 112.5 202.128906 L 112.5 200.910156 L 136.402344 200.910156 Z M 176.941406 200.910156 L 166.773438 200.910156 L 166.773438 202.128906 L 176.941406 202.128906 Z M 203.003906 202.128906 L 213.175781 202.128906 L 213.175781 200.910156 L 203.003906 200.910156 Z M 145.273438 159.101562 L 112.5 159.101562 L 112.5 160.320312 L 145.273438 160.320312 Z M 229.921875 159.507812 L 197.90625 159.507812 L 197.90625 159.914062 L 229.921875 159.914062 Z M 188.105469 159.101562 L 177.933594 159.101562 L 177.933594 160.320312 L 188.105469 160.320312 Z M 198.855469 173.445312 L 112.5 173.445312 L 112.5 173.855469 L 198.855469 173.855469 Z M 252.308594 174.261719 L 262.480469 174.261719 L 262.480469 173.039062 L 252.308594 173.039062 Z M 213.835938 174.261719 L 236.925781 174.261719 L 236.925781 173.039062 L 213.835938 173.039062 Z M 137.792969 188.195312 L 161.695312 188.195312 L 161.695312 186.976562 L 137.792969 186.976562 Z M 122.671875 186.976562 L 112.5 186.976562 L 112.5 188.195312 L 122.671875 188.195312 Z M 178.84375 187.789062 L 262.480469 187.789062 L 262.480469 187.382812 L 178.84375 187.382812 Z M 218.164062 216.070312 L 228.335938 216.070312 L 228.335938 214.851562 L 218.164062 214.851562 Z M 112.5 216.070312 L 156.066406 216.070312 L 156.066406 214.851562 L 112.5 214.851562 Z M 170.574219 215.664062 L 207.085938 215.664062 L 207.085938 215.257812 L 170.574219 215.257812 Z M 238.542969 216.070312 L 262.480469 216.070312 L 262.480469 214.851562 L 238.542969 214.851562 Z M 225.382812 202.128906 L 262.480469 202.128906 L 262.480469 200.910156 L 225.382812 200.910156 Z M 240.683594 159.101562 L 240.683594 160.320312 L 262.480469 160.320312 L 262.480469 159.101562 Z M 240.683594 159.101562 " fill-opacity="1" fill-rule="nonzero"/></g></svg>