<svg xmlns="http://www.w3.org/2000/svg" xmlns:xlink="http://www.w3.org/1999/xlink" width="500" zoomAndPan="magnify" viewBox="0 0 375 374.999991" height="500" preserveAspectRatio="xMidYMid meet" version="1.0"><defs><clipPath id="153b917767"><path d="M 112.5 163.78125 L 262.5 163.78125 L 262.5 211.03125 L 112.5 211.03125 Z M 112.5 163.78125 " clip-rule="nonzero"/></clipPath></defs><g clip-path="url(#153b917767)"><path fill="#231f20" d="M 167.160156 175.671875 L 172.050781 175.671875 L 172.050781 175.988281 L 167.160156 175.988281 Z M 180.109375 187.25 L 175.21875 187.25 L 175.21875 187.5625 L 180.109375 187.5625 Z M 152.371094 175.671875 L 147.476562 175.671875 L 147.476562 175.988281 L 152.371094 175.988281 Z M 164.15625 164.097656 L 159.261719 164.097656 L 159.261719 164.414062 L 164.15625 164.414062 Z M 112.613281 210.714844 L 117.507812 210.714844 L 117.507812 210.398438 L 112.613281 210.398438 Z M 191.734375 175.671875 L 186.839844 175.671875 L 186.839844 175.988281 L 191.734375 175.988281 Z M 183.277344 199.140625 L 188.171875 199.140625 L 188.171875 198.824219 L 183.277344 198.824219 Z M 202.957031 199.140625 L 207.851562 199.140625 L 207.851562 198.824219 L 202.957031 198.824219 Z M 194.898438 187.5625 L 199.792969 187.5625 L 199.792969 187.25 L 194.898438 187.25 Z M 223.035156 164.097656 L 218.140625 164.097656 L 218.140625 164.414062 L 223.035156 164.414062 Z M 211.414062 175.671875 L 206.519531 175.671875 L 206.519531 175.988281 L 211.414062 175.988281 Z M 202.957031 163.78125 L 178.859375 163.78125 L 178.859375 164.730469 L 202.957031 164.730469 Z M 124.234375 199.140625 L 129.128906 199.140625 L 129.128906 198.824219 L 124.234375 198.824219 Z M 234.261719 187.5625 L 239.152344 187.5625 L 239.152344 187.25 L 234.261719 187.25 Z M 226.199219 175.988281 L 231.09375 175.988281 L 231.09375 175.671875 L 226.199219 175.671875 Z M 237.820312 164.414062 L 242.714844 164.414062 L 242.714844 164.097656 L 237.820312 164.097656 Z M 214.578125 187.5625 L 219.472656 187.5625 L 219.472656 187.25 L 214.578125 187.25 Z M 222.640625 199.140625 L 227.53125 199.140625 L 227.53125 198.824219 L 222.640625 198.824219 Z M 245.882812 175.988281 L 250.777344 175.988281 L 250.777344 175.671875 L 245.882812 175.671875 Z M 257.503906 164.097656 L 257.503906 164.414062 L 262.398438 164.414062 L 262.398438 164.097656 Z M 132.292969 210.714844 L 137.1875 210.714844 L 137.1875 210.398438 L 132.292969 210.398438 Z M 151.976562 210.714844 L 156.867188 210.714844 L 156.867188 210.398438 L 151.976562 210.398438 Z M 143.914062 199.140625 L 148.808594 199.140625 L 148.808594 198.824219 L 143.914062 198.824219 Z M 135.855469 187.5625 L 140.75 187.5625 L 140.75 187.25 L 135.855469 187.25 Z M 155.539062 187.5625 L 160.429688 187.5625 L 160.429688 187.25 L 155.539062 187.25 Z M 171.65625 211.03125 L 215.929688 211.03125 L 215.929688 210.082031 L 171.65625 210.082031 Z M 163.597656 199.140625 L 168.488281 199.140625 L 168.488281 198.824219 L 163.597656 198.824219 Z M 163.597656 199.140625 " fill-opacity="1" fill-rule="nonzero"/></g></svg>