<svg xmlns="http://www.w3.org/2000/svg" xmlns:xlink="http://www.w3.org/1999/xlink" width="500" zoomAndPan="magnify" viewBox="0 0 375 374.999991" height="500" preserveAspectRatio="xMidYMid meet" version="1.0"><defs><g/><clipPath id="47c15482d4"><path d="M 102 169 L 149.324219 169 L 149.324219 216 L 102 216 Z M 102 169 " clip-rule="nonzero"/></clipPath><clipPath id="14b839358e"><path d="M 45.074219 139 L 118 139 L 118 216 L 45.074219 216 Z M 45.074219 139 " clip-rule="nonzero"/></clipPath></defs><g fill="#000000" fill-opacity="1"><g transform="translate(149.080323, 181.238688)"><g><path d="M 14.375 -15.21875 L 5.375 -15.21875 L 5.375 -10.046875 L 13.53125 -10.046875 L 13.53125 -7.359375 L 5.375 -7.359375 L 5.375 0 L 2.359375 0 L 2.359375 -17.9375 L 14.40625 -17.9375 Z M 14.375 -15.21875 "/></g></g></g><g fill="#000000" fill-opacity="1"><g transform="translate(166.219085, 181.238688)"><g><path d="M 15.171875 -15.21875 L 5.375 -15.21875 L 5.375 -10.375 L 14.140625 -10.375 L 14.140625 -7.65625 L 5.375 -7.65625 L 5.375 -2.71875 L 15.484375 -2.71875 L 15.484375 0 L 2.359375 0 L 2.359375 -17.9375 L 15.171875 -17.9375 Z M 15.171875 -15.21875 "/></g></g></g><g fill="#000000" fill-opacity="1"><g transform="translate(185.432844, 181.238688)"><g><path d="M 13.734375 0 L 10.453125 -5.4375 C 10.285156 -5.414062 10.015625 -5.40625 9.640625 -5.40625 L 5.375 -5.40625 L 5.375 0 L 2.359375 0 L 2.359375 -17.9375 L 9.640625 -17.9375 C 11.921875 -17.9375 13.691406 -17.398438 14.953125 -16.328125 C 16.222656 -15.265625 16.859375 -13.757812 16.859375 -11.8125 C 16.859375 -10.375 16.535156 -9.160156 15.890625 -8.171875 C 15.253906 -7.179688 14.335938 -6.457031 13.140625 -6 L 17.171875 0 Z M 5.375 -8.125 L 9.640625 -8.125 C 12.535156 -8.125 13.984375 -9.328125 13.984375 -11.734375 C 13.984375 -14.054688 12.535156 -15.21875 9.640625 -15.21875 L 5.375 -15.21875 Z M 5.375 -8.125 "/></g></g></g><g fill="#000000" fill-opacity="1"><g transform="translate(206.362954, 181.238688)"><g><path d="M 13.734375 0 L 10.453125 -5.4375 C 10.285156 -5.414062 10.015625 -5.40625 9.640625 -5.40625 L 5.375 -5.40625 L 5.375 0 L 2.359375 0 L 2.359375 -17.9375 L 9.640625 -17.9375 C 11.921875 -17.9375 13.691406 -17.398438 14.953125 -16.328125 C 16.222656 -15.265625 16.859375 -13.757812 16.859375 -11.8125 C 16.859375 -10.375 16.535156 -9.160156 15.890625 -8.171875 C 15.253906 -7.179688 14.335938 -6.457031 13.140625 -6 L 17.171875 0 Z M 5.375 -8.125 L 9.640625 -8.125 C 12.535156 -8.125 13.984375 -9.328125 13.984375 -11.734375 C 13.984375 -14.054688 12.535156 -15.21875 9.640625 -15.21875 L 5.375 -15.21875 Z M 5.375 -8.125 "/></g></g></g><g fill="#000000" fill-opacity="1"><g transform="translate(227.293064, 181.238688)"><g><path d="M 15.171875 -15.21875 L 5.375 -15.21875 L 5.375 -10.375 L 14.140625 -10.375 L 14.140625 -7.65625 L 5.375 -7.65625 L 5.375 -2.71875 L 15.484375 -2.71875 L 15.484375 0 L 2.359375 0 L 2.359375 -17.9375 L 15.171875 -17.9375 Z M 15.171875 -15.21875 "/></g></g></g><g fill="#000000" fill-opacity="1"><g transform="translate(246.506823, 181.238688)"><g><path d="M 5.375 0 L 2.359375 0 L 2.359375 -17.9375 L 5.375 -17.9375 Z M 5.375 0 "/></g></g></g><g fill="#000000" fill-opacity="1"><g transform="translate(256.652078, 181.238688)"><g><path d="M 13.734375 0 L 10.453125 -5.4375 C 10.285156 -5.414062 10.015625 -5.40625 9.640625 -5.40625 L 5.375 -5.40625 L 5.375 0 L 2.359375 0 L 2.359375 -17.9375 L 9.640625 -17.9375 C 11.921875 -17.9375 13.691406 -17.398438 14.953125 -16.328125 C 16.222656 -15.265625 16.859375 -13.757812 16.859375 -11.8125 C 16.859375 -10.375 16.535156 -9.160156 15.890625 -8.171875 C 15.253906 -7.179688 14.335938 -6.457031 13.140625 -6 L 17.171875 0 Z M 5.375 -8.125 L 9.640625 -8.125 C 12.535156 -8.125 13.984375 -9.328125 13.984375 -11.734375 C 13.984375 -14.054688 12.535156 -15.21875 9.640625 -15.21875 L 5.375 -15.21875 Z M 5.375 -8.125 "/></g></g></g><g fill="#000000" fill-opacity="1"><g transform="translate(277.582188, 181.238688)"><g><path d="M 13.9375 -4.046875 L 4.890625 -4.046875 L 3.171875 0 L 0.03125 0 L 7.9375 -17.9375 L 11.046875 -17.9375 L 18.890625 0 L 15.65625 0 Z M 12.78125 -6.734375 L 9.40625 -14.703125 L 6.015625 -6.734375 Z M 12.78125 -6.734375 "/></g></g></g><g fill="#000000" fill-opacity="1"><g transform="translate(163.43579, 205.238687)"><g><path d="M 8.25 -18.0625 C 10.570312 -18.0625 12.664062 -17.445312 14.53125 -16.21875 L 13.28125 -13.5625 C 11.445312 -14.664062 9.691406 -15.21875 8.015625 -15.21875 C 7.109375 -15.21875 6.394531 -15.054688 5.875 -14.734375 C 5.351562 -14.410156 5.09375 -13.945312 5.09375 -13.34375 C 5.09375 -12.75 5.332031 -12.242188 5.8125 -11.828125 C 6.289062 -11.410156 6.890625 -11.101562 7.609375 -10.90625 C 8.328125 -10.707031 9.101562 -10.457031 9.9375 -10.15625 C 10.78125 -9.863281 11.554688 -9.550781 12.265625 -9.21875 C 12.984375 -8.882812 13.578125 -8.359375 14.046875 -7.640625 C 14.523438 -6.929688 14.765625 -6.078125 14.765625 -5.078125 C 14.765625 -3.503906 14.132812 -2.242188 12.875 -1.296875 C 11.625 -0.359375 10 0.109375 8 0.109375 C 6.625 0.109375 5.296875 -0.144531 4.015625 -0.65625 C 2.734375 -1.175781 1.617188 -1.867188 0.671875 -2.734375 L 1.96875 -5.359375 C 2.875 -4.515625 3.867188 -3.863281 4.953125 -3.40625 C 6.035156 -2.957031 7.066406 -2.734375 8.046875 -2.734375 C 9.109375 -2.734375 9.929688 -2.925781 10.515625 -3.3125 C 11.109375 -3.695312 11.40625 -4.234375 11.40625 -4.921875 C 11.40625 -5.535156 11.164062 -6.050781 10.6875 -6.46875 C 10.207031 -6.882812 9.609375 -7.191406 8.890625 -7.390625 C 8.171875 -7.585938 7.390625 -7.828125 6.546875 -8.109375 C 5.710938 -8.390625 4.9375 -8.6875 4.21875 -9 C 3.507812 -9.320312 2.914062 -9.832031 2.4375 -10.53125 C 1.957031 -11.226562 1.71875 -12.070312 1.71875 -13.0625 C 1.71875 -14.582031 2.3125 -15.796875 3.5 -16.703125 C 4.695312 -17.609375 6.28125 -18.0625 8.25 -18.0625 Z M 8.25 -18.0625 "/></g></g></g><g fill="#000000" fill-opacity="1"><g transform="translate(181.778562, 205.238687)"><g><path d="M 13.9375 -4.046875 L 4.890625 -4.046875 L 3.171875 0 L 0.03125 0 L 7.9375 -17.9375 L 11.046875 -17.9375 L 18.890625 0 L 15.65625 0 Z M 12.78125 -6.734375 L 9.40625 -14.703125 L 6.015625 -6.734375 Z M 12.78125 -6.734375 "/></g></g></g><g fill="#000000" fill-opacity="1"><g transform="translate(203.09293, 205.238687)"><g><path d="M 17.90625 0 L 14.9375 0 L 5.375 -12.859375 L 5.375 0 L 2.359375 0 L 2.359375 -17.9375 L 5.328125 -17.9375 L 14.9375 -5.046875 L 14.9375 -17.9375 L 17.90625 -17.9375 Z M 17.90625 0 "/></g></g></g><g fill="#000000" fill-opacity="1"><g transform="translate(225.790626, 205.238687)"><g><path d="M 14.609375 -15.21875 L 8.921875 -15.21875 L 8.921875 0 L 5.890625 0 L 5.890625 -15.21875 L 0.234375 -15.21875 L 0.234375 -17.9375 L 14.609375 -17.9375 Z M 14.609375 -15.21875 "/></g></g></g><g fill="#000000" fill-opacity="1"><g transform="translate(243.031847, 205.238687)"><g><path d="M 3.609375 -15.40625 C 5.441406 -17.144531 7.695312 -18.015625 10.375 -18.015625 C 13.0625 -18.015625 15.316406 -17.144531 17.140625 -15.40625 C 18.972656 -13.675781 19.890625 -11.53125 19.890625 -8.96875 C 19.890625 -6.40625 18.972656 -4.25 17.140625 -2.5 C 15.316406 -0.75 13.0625 0.125 10.375 0.125 C 7.695312 0.125 5.441406 -0.75 3.609375 -2.5 C 1.785156 -4.25 0.875 -6.40625 0.875 -8.96875 C 0.875 -11.53125 1.785156 -13.675781 3.609375 -15.40625 Z M 10.40625 -15.296875 C 8.625 -15.296875 7.101562 -14.6875 5.84375 -13.46875 C 4.582031 -12.25 3.953125 -10.75 3.953125 -8.96875 C 3.953125 -7.1875 4.585938 -5.675781 5.859375 -4.4375 C 7.128906 -3.207031 8.644531 -2.59375 10.40625 -2.59375 C 12.164062 -2.59375 13.664062 -3.207031 14.90625 -4.4375 C 16.15625 -5.675781 16.78125 -7.1875 16.78125 -8.96875 C 16.78125 -10.75 16.15625 -12.25 14.90625 -13.46875 C 13.664062 -14.6875 12.164062 -15.296875 10.40625 -15.296875 Z M 10.40625 -15.296875 "/></g></g></g><g fill="#000000" fill-opacity="1"><g transform="translate(266.190659, 205.238687)"><g><path d="M 8.25 -18.0625 C 10.570312 -18.0625 12.664062 -17.445312 14.53125 -16.21875 L 13.28125 -13.5625 C 11.445312 -14.664062 9.691406 -15.21875 8.015625 -15.21875 C 7.109375 -15.21875 6.394531 -15.054688 5.875 -14.734375 C 5.351562 -14.410156 5.09375 -13.945312 5.09375 -13.34375 C 5.09375 -12.75 5.332031 -12.242188 5.8125 -11.828125 C 6.289062 -11.410156 6.890625 -11.101562 7.609375 -10.90625 C 8.328125 -10.707031 9.101562 -10.457031 9.9375 -10.15625 C 10.78125 -9.863281 11.554688 -9.550781 12.265625 -9.21875 C 12.984375 -8.882812 13.578125 -8.359375 14.046875 -7.640625 C 14.523438 -6.929688 14.765625 -6.078125 14.765625 -5.078125 C 14.765625 -3.503906 14.132812 -2.242188 12.875 -1.296875 C 11.625 -0.359375 10 0.109375 8 0.109375 C 6.625 0.109375 5.296875 -0.144531 4.015625 -0.65625 C 2.734375 -1.175781 1.617188 -1.867188 0.671875 -2.734375 L 1.96875 -5.359375 C 2.875 -4.515625 3.867188 -3.863281 4.953125 -3.40625 C 6.035156 -2.957031 7.066406 -2.734375 8.046875 -2.734375 C 9.109375 -2.734375 9.929688 -2.925781 10.515625 -3.3125 C 11.109375 -3.695312 11.40625 -4.234375 11.40625 -4.921875 C 11.40625 -5.535156 11.164062 -6.050781 10.6875 -6.46875 C 10.207031 -6.882812 9.609375 -7.191406 8.890625 -7.390625 C 8.171875 -7.585938 7.390625 -7.828125 6.546875 -8.109375 C 5.710938 -8.390625 4.9375 -8.6875 4.21875 -9 C 3.507812 -9.320312 2.914062 -9.832031 2.4375 -10.53125 C 1.957031 -11.226562 1.71875 -12.070312 1.71875 -13.0625 C 1.71875 -14.582031 2.3125 -15.796875 3.5 -16.703125 C 4.695312 -17.609375 6.28125 -18.0625 8.25 -18.0625 Z M 8.25 -18.0625 "/></g></g></g><g fill="#000000" fill-opacity="1"><g transform="translate(79.41636, 234.072668)"><g><path d="M 5.578125 -1.625 L 1.953125 -1.625 L 1.265625 0 L 0.015625 0 L 3.171875 -7.171875 L 4.421875 -7.171875 L 7.546875 0 L 6.265625 0 Z M 5.109375 -2.703125 L 3.765625 -5.890625 L 2.40625 -2.703125 Z M 5.109375 -2.703125 "/></g></g></g><g fill="#000000" fill-opacity="1"><g transform="translate(89.677244, 234.072668)"><g><path d="M 5.5 0 L 4.1875 -2.171875 C 4.113281 -2.160156 4.003906 -2.15625 3.859375 -2.15625 L 2.15625 -2.15625 L 2.15625 0 L 0.9375 0 L 0.9375 -7.171875 L 3.859375 -7.171875 C 4.773438 -7.171875 5.484375 -6.957031 5.984375 -6.53125 C 6.492188 -6.101562 6.75 -5.5 6.75 -4.71875 C 6.75 -4.144531 6.617188 -3.660156 6.359375 -3.265625 C 6.097656 -2.867188 5.734375 -2.582031 5.265625 -2.40625 L 6.875 0 Z M 2.15625 -3.25 L 3.859375 -3.25 C 5.015625 -3.25 5.59375 -3.726562 5.59375 -4.6875 C 5.59375 -5.625 5.015625 -6.09375 3.859375 -6.09375 L 2.15625 -6.09375 Z M 2.15625 -3.25 "/></g></g></g><g fill="#000000" fill-opacity="1"><g transform="translate(99.784363, 234.072668)"><g><path d="M 7.890625 -0.0625 L 8.375 0.796875 C 7.78125 1.316406 7.128906 1.578125 6.421875 1.578125 C 5.984375 1.578125 5.566406 1.441406 5.171875 1.171875 C 4.773438 0.910156 4.429688 0.535156 4.140625 0.046875 C 3.066406 0.046875 2.164062 -0.300781 1.4375 -1 C 0.707031 -1.695312 0.34375 -2.554688 0.34375 -3.578125 C 0.34375 -4.609375 0.707031 -5.46875 1.4375 -6.15625 C 2.175781 -6.851562 3.082031 -7.203125 4.15625 -7.203125 C 5.226562 -7.203125 6.128906 -6.851562 6.859375 -6.15625 C 7.585938 -5.46875 7.953125 -4.613281 7.953125 -3.59375 C 7.953125 -2.78125 7.710938 -2.054688 7.234375 -1.421875 C 6.765625 -0.796875 6.144531 -0.367188 5.375 -0.140625 C 5.78125 0.304688 6.175781 0.53125 6.5625 0.53125 C 6.945312 0.53125 7.390625 0.332031 7.890625 -0.0625 Z M 2.328125 -5.390625 C 1.828125 -4.898438 1.578125 -4.296875 1.578125 -3.578125 C 1.578125 -2.867188 1.832031 -2.265625 2.34375 -1.765625 C 2.851562 -1.273438 3.457031 -1.03125 4.15625 -1.03125 C 4.863281 -1.03125 5.46875 -1.273438 5.96875 -1.765625 C 6.46875 -2.265625 6.71875 -2.867188 6.71875 -3.578125 C 6.71875 -4.296875 6.46875 -4.898438 5.96875 -5.390625 C 5.46875 -5.878906 4.863281 -6.125 4.15625 -6.125 C 3.445312 -6.125 2.835938 -5.878906 2.328125 -5.390625 Z M 2.328125 -5.390625 "/></g></g></g><g fill="#000000" fill-opacity="1"><g transform="translate(110.937055, 234.072668)"><g><path d="M 7.046875 -7.171875 L 7.046875 -2.96875 C 7.046875 -2.03125 6.765625 -1.289062 6.203125 -0.75 C 5.648438 -0.21875 4.890625 0.046875 3.921875 0.046875 C 2.953125 0.046875 2.1875 -0.21875 1.625 -0.75 C 1.070312 -1.289062 0.796875 -2.03125 0.796875 -2.96875 L 0.796875 -7.171875 L 2.015625 -7.171875 L 2.015625 -2.96875 C 2.015625 -2.375 2.1875 -1.898438 2.53125 -1.546875 C 2.875 -1.203125 3.34375 -1.03125 3.9375 -1.03125 C 4.519531 -1.03125 4.976562 -1.203125 5.3125 -1.546875 C 5.65625 -1.890625 5.828125 -2.363281 5.828125 -2.96875 L 5.828125 -7.171875 Z M 7.046875 -7.171875 "/></g></g></g><g fill="#000000" fill-opacity="1"><g transform="translate(121.464449, 234.072668)"><g><path d="M 2.15625 0 L 0.9375 0 L 0.9375 -7.171875 L 2.15625 -7.171875 Z M 2.15625 0 "/></g></g></g><g fill="#000000" fill-opacity="1"><g transform="translate(127.256045, 234.072668)"><g><path d="M 5.84375 -6.09375 L 3.5625 -6.09375 L 3.5625 0 L 2.359375 0 L 2.359375 -6.09375 L 0.09375 -6.09375 L 0.09375 -7.171875 L 5.84375 -7.171875 Z M 5.84375 -6.09375 "/></g></g></g><g fill="#000000" fill-opacity="1"><g transform="translate(135.887069, 234.072668)"><g><path d="M 6.0625 -6.09375 L 2.15625 -6.09375 L 2.15625 -4.15625 L 5.65625 -4.15625 L 5.65625 -3.0625 L 2.15625 -3.0625 L 2.15625 -1.09375 L 6.1875 -1.09375 L 6.1875 0 L 0.9375 0 L 0.9375 -7.171875 L 6.0625 -7.171875 Z M 6.0625 -6.09375 "/></g></g></g><g fill="#000000" fill-opacity="1"><g transform="translate(145.307396, 234.072668)"><g><path d="M 5.84375 -6.09375 L 3.5625 -6.09375 L 3.5625 0 L 2.359375 0 L 2.359375 -6.09375 L 0.09375 -6.09375 L 0.09375 -7.171875 L 5.84375 -7.171875 Z M 5.84375 -6.09375 "/></g></g></g><g fill="#000000" fill-opacity="1"><g transform="translate(153.93842, 234.072668)"><g><path d="M 7.046875 -7.171875 L 7.046875 -2.96875 C 7.046875 -2.03125 6.765625 -1.289062 6.203125 -0.75 C 5.648438 -0.21875 4.890625 0.046875 3.921875 0.046875 C 2.953125 0.046875 2.1875 -0.21875 1.625 -0.75 C 1.070312 -1.289062 0.796875 -2.03125 0.796875 -2.96875 L 0.796875 -7.171875 L 2.015625 -7.171875 L 2.015625 -2.96875 C 2.015625 -2.375 2.1875 -1.898438 2.53125 -1.546875 C 2.875 -1.203125 3.34375 -1.03125 3.9375 -1.03125 C 4.519531 -1.03125 4.976562 -1.203125 5.3125 -1.546875 C 5.65625 -1.890625 5.828125 -2.363281 5.828125 -2.96875 L 5.828125 -7.171875 Z M 7.046875 -7.171875 "/></g></g></g><g fill="#000000" fill-opacity="1"><g transform="translate(164.465815, 234.072668)"><g><path d="M 5.5 0 L 4.1875 -2.171875 C 4.113281 -2.160156 4.003906 -2.15625 3.859375 -2.15625 L 2.15625 -2.15625 L 2.15625 0 L 0.9375 0 L 0.9375 -7.171875 L 3.859375 -7.171875 C 4.773438 -7.171875 5.484375 -6.957031 5.984375 -6.53125 C 6.492188 -6.101562 6.75 -5.5 6.75 -4.71875 C 6.75 -4.144531 6.617188 -3.660156 6.359375 -3.265625 C 6.097656 -2.867188 5.734375 -2.582031 5.265625 -2.40625 L 6.875 0 Z M 2.15625 -3.25 L 3.859375 -3.25 C 5.015625 -3.25 5.59375 -3.726562 5.59375 -4.6875 C 5.59375 -5.625 5.015625 -6.09375 3.859375 -6.09375 L 2.15625 -6.09375 Z M 2.15625 -3.25 "/></g></g></g><g fill="#000000" fill-opacity="1"><g transform="translate(174.572932, 234.072668)"><g><path d="M 5.578125 -1.625 L 1.953125 -1.625 L 1.265625 0 L 0.015625 0 L 3.171875 -7.171875 L 4.421875 -7.171875 L 7.546875 0 L 6.265625 0 Z M 5.109375 -2.703125 L 3.765625 -5.890625 L 2.40625 -2.703125 Z M 5.109375 -2.703125 "/></g></g></g><g fill="#000000" fill-opacity="1"><g transform="translate(184.833815, 234.072668)"><g/></g></g><g fill="#000000" fill-opacity="1"><g transform="translate(190.174392, 234.072668)"><g><path d="M 6.0625 -6.09375 L 2.15625 -6.09375 L 2.15625 -4.15625 L 5.65625 -4.15625 L 5.65625 -3.0625 L 2.15625 -3.0625 L 2.15625 -1.09375 L 6.1875 -1.09375 L 6.1875 0 L 0.9375 0 L 0.9375 -7.171875 L 6.0625 -7.171875 Z M 6.0625 -6.09375 "/></g></g></g><g fill="#000000" fill-opacity="1"><g transform="translate(199.594726, 234.072668)"><g/></g></g><g fill="#000000" fill-opacity="1"><g transform="translate(204.935303, 234.072668)"><g><path d="M 7.046875 -7.171875 L 7.046875 -2.96875 C 7.046875 -2.03125 6.765625 -1.289062 6.203125 -0.75 C 5.648438 -0.21875 4.890625 0.046875 3.921875 0.046875 C 2.953125 0.046875 2.1875 -0.21875 1.625 -0.75 C 1.070312 -1.289062 0.796875 -2.03125 0.796875 -2.96875 L 0.796875 -7.171875 L 2.015625 -7.171875 L 2.015625 -2.96875 C 2.015625 -2.375 2.1875 -1.898438 2.53125 -1.546875 C 2.875 -1.203125 3.34375 -1.03125 3.9375 -1.03125 C 4.519531 -1.03125 4.976562 -1.203125 5.3125 -1.546875 C 5.65625 -1.890625 5.828125 -2.363281 5.828125 -2.96875 L 5.828125 -7.171875 Z M 7.046875 -7.171875 "/></g></g></g><g fill="#000000" fill-opacity="1"><g transform="translate(215.462704, 234.072668)"><g><path d="M 5.5 0 L 4.1875 -2.171875 C 4.113281 -2.160156 4.003906 -2.15625 3.859375 -2.15625 L 2.15625 -2.15625 L 2.15625 0 L 0.9375 0 L 0.9375 -7.171875 L 3.859375 -7.171875 C 4.773438 -7.171875 5.484375 -6.957031 5.984375 -6.53125 C 6.492188 -6.101562 6.75 -5.5 6.75 -4.71875 C 6.75 -4.144531 6.617188 -3.660156 6.359375 -3.265625 C 6.097656 -2.867188 5.734375 -2.582031 5.265625 -2.40625 L 6.875 0 Z M 2.15625 -3.25 L 3.859375 -3.25 C 5.015625 -3.25 5.59375 -3.726562 5.59375 -4.6875 C 5.59375 -5.625 5.015625 -6.09375 3.859375 -6.09375 L 2.15625 -6.09375 Z M 2.15625 -3.25 "/></g></g></g><g fill="#000000" fill-opacity="1"><g transform="translate(225.569828, 234.072668)"><g><path d="M 0.9375 -7.171875 L 4.0625 -7.171875 C 4.800781 -7.171875 5.382812 -7.007812 5.8125 -6.6875 C 6.25 -6.375 6.46875 -5.9375 6.46875 -5.375 C 6.46875 -4.976562 6.351562 -4.632812 6.125 -4.34375 C 5.90625 -4.0625 5.597656 -3.875 5.203125 -3.78125 C 5.679688 -3.695312 6.054688 -3.492188 6.328125 -3.171875 C 6.609375 -2.859375 6.75 -2.457031 6.75 -1.96875 C 6.75 -1.351562 6.515625 -0.867188 6.046875 -0.515625 C 5.578125 -0.171875 4.9375 0 4.125 0 L 0.9375 0 Z M 2.15625 -6.09375 L 2.15625 -4.203125 L 4 -4.203125 C 4.382812 -4.203125 4.6875 -4.285156 4.90625 -4.453125 C 5.125 -4.628906 5.234375 -4.863281 5.234375 -5.15625 C 5.234375 -5.457031 5.125 -5.6875 4.90625 -5.84375 C 4.6875 -6.007812 4.382812 -6.09375 4 -6.09375 Z M 2.15625 -3.140625 L 2.15625 -1.078125 L 4 -1.078125 C 4.476562 -1.078125 4.847656 -1.164062 5.109375 -1.34375 C 5.367188 -1.53125 5.5 -1.789062 5.5 -2.125 C 5.5 -2.4375 5.363281 -2.679688 5.09375 -2.859375 C 4.832031 -3.046875 4.46875 -3.140625 4 -3.140625 Z M 2.15625 -3.140625 "/></g></g></g><g fill="#000000" fill-opacity="1"><g transform="translate(235.502696, 234.072668)"><g><path d="M 5.578125 -1.625 L 1.953125 -1.625 L 1.265625 0 L 0.015625 0 L 3.171875 -7.171875 L 4.421875 -7.171875 L 7.546875 0 L 6.265625 0 Z M 5.109375 -2.703125 L 3.765625 -5.890625 L 2.40625 -2.703125 Z M 5.109375 -2.703125 "/></g></g></g><g fill="#000000" fill-opacity="1"><g transform="translate(245.763586, 234.072668)"><g><path d="M 7.171875 0 L 5.96875 0 L 2.15625 -5.140625 L 2.15625 0 L 0.9375 0 L 0.9375 -7.171875 L 2.125 -7.171875 L 5.96875 -2.015625 L 5.96875 -7.171875 L 7.171875 -7.171875 Z M 7.171875 0 "/></g></g></g><g fill="#000000" fill-opacity="1"><g transform="translate(256.578015, 234.072668)"><g><path d="M 2.15625 0 L 0.9375 0 L 0.9375 -7.171875 L 2.15625 -7.171875 Z M 2.15625 0 "/></g></g></g><g fill="#000000" fill-opacity="1"><g transform="translate(262.369617, 234.072668)"><g><path d="M 3.296875 -7.21875 C 4.222656 -7.21875 5.0625 -6.972656 5.8125 -6.484375 L 5.3125 -5.421875 C 4.582031 -5.867188 3.878906 -6.09375 3.203125 -6.09375 C 2.847656 -6.09375 2.566406 -6.023438 2.359375 -5.890625 C 2.148438 -5.765625 2.046875 -5.582031 2.046875 -5.34375 C 2.046875 -5.101562 2.140625 -4.898438 2.328125 -4.734375 C 2.515625 -4.566406 2.75 -4.441406 3.03125 -4.359375 C 3.320312 -4.285156 3.632812 -4.1875 3.96875 -4.0625 C 4.3125 -3.945312 4.625 -3.820312 4.90625 -3.6875 C 5.195312 -3.550781 5.4375 -3.34375 5.625 -3.0625 C 5.8125 -2.78125 5.90625 -2.4375 5.90625 -2.03125 C 5.90625 -1.40625 5.648438 -0.898438 5.140625 -0.515625 C 4.640625 -0.140625 3.992188 0.046875 3.203125 0.046875 C 2.648438 0.046875 2.117188 -0.0546875 1.609375 -0.265625 C 1.097656 -0.472656 0.648438 -0.75 0.265625 -1.09375 L 0.796875 -2.140625 C 1.148438 -1.804688 1.546875 -1.546875 1.984375 -1.359375 C 2.421875 -1.179688 2.832031 -1.09375 3.21875 -1.09375 C 3.644531 -1.09375 3.972656 -1.171875 4.203125 -1.328125 C 4.441406 -1.484375 4.5625 -1.695312 4.5625 -1.96875 C 4.5625 -2.21875 4.460938 -2.425781 4.265625 -2.59375 C 4.078125 -2.757812 3.835938 -2.878906 3.546875 -2.953125 C 3.265625 -3.035156 2.957031 -3.128906 2.625 -3.234375 C 2.289062 -3.347656 1.976562 -3.46875 1.6875 -3.59375 C 1.40625 -3.726562 1.164062 -3.9375 0.96875 -4.21875 C 0.78125 -4.5 0.6875 -4.835938 0.6875 -5.234375 C 0.6875 -5.835938 0.925781 -6.316406 1.40625 -6.671875 C 1.882812 -7.035156 2.515625 -7.21875 3.296875 -7.21875 Z M 3.296875 -7.21875 "/></g></g></g><g fill="#000000" fill-opacity="1"><g transform="translate(271.441428, 234.072668)"><g><path d="M 8.53125 0 L 7.40625 0 L 7.40625 -5.359375 L 5.140625 -0.75 L 4.34375 -0.75 L 2.078125 -5.359375 L 2.078125 0 L 0.9375 0 L 0.9375 -7.171875 L 2.375 -7.171875 L 4.75 -2.40625 L 7.109375 -7.171875 L 8.53125 -7.171875 Z M 8.53125 0 "/></g></g></g><g fill="#000000" fill-opacity="1"><g transform="translate(283.619191, 234.072668)"><g><path d="M 1.4375 -6.15625 C 2.175781 -6.851562 3.082031 -7.203125 4.15625 -7.203125 C 5.226562 -7.203125 6.128906 -6.851562 6.859375 -6.15625 C 7.585938 -5.46875 7.953125 -4.609375 7.953125 -3.578125 C 7.953125 -2.554688 7.585938 -1.695312 6.859375 -1 C 6.128906 -0.300781 5.226562 0.046875 4.15625 0.046875 C 3.082031 0.046875 2.175781 -0.300781 1.4375 -1 C 0.707031 -1.695312 0.34375 -2.554688 0.34375 -3.578125 C 0.34375 -4.609375 0.707031 -5.46875 1.4375 -6.15625 Z M 4.15625 -6.125 C 3.445312 -6.125 2.835938 -5.878906 2.328125 -5.390625 C 1.828125 -4.898438 1.578125 -4.296875 1.578125 -3.578125 C 1.578125 -2.867188 1.832031 -2.265625 2.34375 -1.765625 C 2.851562 -1.273438 3.457031 -1.03125 4.15625 -1.03125 C 4.863281 -1.03125 5.46875 -1.273438 5.96875 -1.765625 C 6.46875 -2.265625 6.71875 -2.867188 6.71875 -3.578125 C 6.71875 -4.296875 6.46875 -4.898438 5.96875 -5.390625 C 5.46875 -5.878906 4.863281 -6.125 4.15625 -6.125 Z M 4.15625 -6.125 "/></g></g></g><g clip-path="url(#47c15482d4)"><path fill="#000000" d="M 117.820312 169.644531 L 102.085938 181.234375 L 149.007812 215.796875 L 149.007812 192.617188 Z M 117.820312 169.644531 " fill-opacity="1" fill-rule="nonzero"/></g><g clip-path="url(#14b839358e)"><path fill="#f3ba69" d="M 117.824219 162.222656 L 45.09375 215.796875 L 45.09375 192.617188 L 117.824219 139.042969 Z M 117.824219 162.222656 " fill-opacity="1" fill-rule="nonzero"/></g><g fill="#f3ba69" fill-opacity="1"><g transform="translate(287.62727, 191.533684)"><g><path d="M 2.421875 0.125 C 1.753906 0.125 1.21875 -0.0703125 0.8125 -0.46875 C 0.414062 -0.863281 0.21875 -1.300781 0.21875 -1.78125 C 0.21875 -2.269531 0.347656 -2.671875 0.609375 -2.984375 C 0.867188 -3.296875 1.171875 -3.523438 1.515625 -3.671875 C 0.972656 -4.023438 0.703125 -4.507812 0.703125 -5.125 C 0.703125 -5.613281 0.867188 -6.015625 1.203125 -6.328125 C 1.535156 -6.640625 2.003906 -6.796875 2.609375 -6.796875 C 3.210938 -6.796875 3.671875 -6.632812 3.984375 -6.3125 C 4.296875 -5.988281 4.453125 -5.609375 4.453125 -5.171875 C 4.453125 -4.515625 4.117188 -4 3.453125 -3.625 C 3.921875 -3.300781 4.320312 -2.941406 4.65625 -2.546875 C 4.863281 -2.898438 5.050781 -3.289062 5.21875 -3.71875 L 6.15625 -3.453125 C 5.9375 -2.878906 5.644531 -2.3125 5.28125 -1.75 C 5.613281 -1.257812 5.914062 -0.648438 6.1875 0.078125 L 5.09375 0.125 C 5.019531 -0.125 4.851562 -0.472656 4.59375 -0.921875 C 3.9375 -0.222656 3.210938 0.125 2.421875 0.125 Z M 1.65625 -2.609375 C 1.457031 -2.378906 1.359375 -2.109375 1.359375 -1.796875 C 1.359375 -1.492188 1.457031 -1.242188 1.65625 -1.046875 C 1.863281 -0.859375 2.117188 -0.765625 2.421875 -0.765625 C 2.734375 -0.765625 3.03125 -0.851562 3.3125 -1.03125 C 3.601562 -1.207031 3.851562 -1.4375 4.0625 -1.71875 C 3.625 -2.289062 3.097656 -2.757812 2.484375 -3.125 C 2.140625 -3.007812 1.863281 -2.835938 1.65625 -2.609375 Z M 2.546875 -4.09375 C 2.773438 -4.195312 2.960938 -4.335938 3.109375 -4.515625 C 3.265625 -4.703125 3.34375 -4.914062 3.34375 -5.15625 C 3.34375 -5.394531 3.28125 -5.582031 3.15625 -5.71875 C 3.03125 -5.863281 2.832031 -5.9375 2.5625 -5.9375 C 2.050781 -5.9375 1.796875 -5.679688 1.796875 -5.171875 C 1.796875 -4.710938 2.046875 -4.351562 2.546875 -4.09375 Z M 2.546875 -4.09375 "/></g></g></g></svg>